<svg xmlns="http://www.w3.org/2000/svg" width="315" height="223" viewBox="0 0 315 223" version="1.1"><path d="M 155.400 46.547 C 154.819 49.049, 154.633 51.273, 154.986 51.492 C 155.339 51.710, 156.084 49.663, 156.641 46.944 C 157.912 40.737, 156.828 40.390, 155.400 46.547 M 190 68.696 C 187.525 70.029, 186.233 70.903, 187.128 70.638 C 188.024 70.373, 189.261 70.661, 189.878 71.278 C 190.707 72.107, 191 72.019, 191 70.941 C 191 69.088, 194.721 66.710, 196.195 67.621 C 196.871 68.038, 197.028 67.855, 196.595 67.155 C 195.697 65.700, 195.456 65.757, 190 68.696" stroke="none" fill="#a3a2a2" fill-rule="evenodd"/><path d="M 196.507 69.989 C 196.115 70.622, 194.829 71.560, 193.648 72.074 C 192.130 72.734, 192.820 72.817, 196 72.356 C 198.475 71.998, 201.552 71.581, 202.838 71.431 C 205.696 71.096, 206.955 70.074, 204.363 70.193 C 203.338 70.240, 201.312 69.955, 199.859 69.558 C 198.213 69.109, 196.950 69.271, 196.507 69.989" stroke="none" fill="#aaabab" fill-rule="evenodd"/><path d="M 141.470 13.088 C 144.203 13.655, 146.976 14.565, 147.631 15.109 C 148.432 15.773, 149.065 15.703, 149.565 14.894 C 150.016 14.166, 149.887 13.952, 149.240 14.352 C 148.652 14.715, 148.017 14.551, 147.829 13.988 C 147.642 13.425, 145.016 12.759, 141.994 12.509 C 136.500 12.055, 136.500 12.055, 141.470 13.088 M 153.456 17.644 C 153.626 18.665, 154.216 19.405, 154.766 19.289 C 155.316 19.173, 156.032 20.411, 156.358 22.039 C 156.684 23.668, 157.466 25, 158.097 25 C 158.933 25, 158.916 24.604, 158.036 23.544 C 157.372 22.743, 157.078 21.683, 157.383 21.189 C 157.688 20.695, 156.860 19.278, 155.542 18.040 C 153.405 16.031, 153.179 15.989, 153.456 17.644 M 235 58.496 C 235 58.903, 236.350 60.774, 238 62.653 C 239.650 64.532, 241 66.755, 241 67.594 C 241 68.432, 241.408 68.866, 241.907 68.558 C 242.405 68.249, 242.560 68.968, 242.249 70.155 C 241.888 71.538, 242.067 72.076, 242.749 71.655 C 243.403 71.251, 243.631 71.697, 243.340 72.809 C 243.079 73.805, 243.640 78.643, 244.586 83.560 C 245.532 88.477, 246.501 95.313, 246.739 98.750 C 247.053 103.299, 247.560 105, 248.600 105 C 249.604 105, 249.891 104.183, 249.565 102.250 C 249.310 100.737, 248.966 95.381, 248.801 90.347 C 248.635 85.313, 248.114 81.432, 247.643 81.722 C 247.172 82.013, 247.095 80.844, 247.473 79.125 C 248.118 76.187, 246.669 74.493, 245.783 77.150 C 245.572 77.782, 245.394 76.770, 245.386 74.900 C 245.365 69.764, 244.136 66, 242.481 66 C 241.666 66, 241.109 65.662, 241.242 65.250 C 241.375 64.838, 240.813 63.600, 239.992 62.500 C 238.140 60.018, 235 57.499, 235 58.496 M 78.250 60.706 C 76.192 61.102, 75.525 62.131, 75.906 64.324 C 75.985 64.778, 75.660 64.908, 75.184 64.613 C 74.707 64.319, 72.830 67.248, 71.012 71.123 C 66.212 81.354, 65.109 102, 69.363 102 C 71.538 102, 72 101.543, 72 99.393 C 72 97.959, 73.411 93.829, 75.136 90.216 C 77.717 84.806, 78.359 82.042, 78.767 74.573 C 79.039 69.583, 79.890 64.263, 80.657 62.750 C 81.424 61.237, 81.702 60.061, 81.276 60.136 C 80.849 60.211, 79.487 60.467, 78.250 60.706 M 138.289 98.091 C 138.917 99.097, 139.698 99.489, 140.024 98.961 C 140.350 98.434, 142.615 98.195, 145.057 98.430 C 147.609 98.676, 148.860 98.518, 147.999 98.058 C 144.365 96.117, 137.072 96.142, 138.289 98.091 M 67.500 113 C 67.160 113.550, 67.260 114, 67.723 114 C 68.185 114, 69.167 116.045, 69.905 118.543 C 71.701 124.625, 72.298 123.665, 70.756 117.174 C 69.547 112.083, 68.721 111.025, 67.500 113 M 157.500 130 C 155.174 130.592, 156.004 130.790, 161.191 130.882 C 164.871 130.947, 168.160 130.550, 168.500 130 C 169.219 128.837, 162.071 128.837, 157.500 130 M 75.355 131.517 C 74.004 135.037, 92.896 163, 96.625 163 C 96.971 163, 95.353 160.863, 93.029 158.250 C 86.320 150.709, 85.598 149.784, 82.291 144.500 C 76.747 135.641, 75.345 132.026, 77.037 130.956 C 78.081 130.295, 78.133 130.026, 77.219 130.015 C 76.514 130.007, 75.675 130.683, 75.355 131.517 M 100.341 131.763 C 99.475 132.318, 99.566 134.211, 100.703 139.282 C 101.859 144.435, 102.519 145.815, 103.455 145.038 C 104.352 144.293, 105 144.704, 105.843 146.555 C 107.417 150.010, 107.296 151.328, 105.468 150.626 C 104.222 150.148, 104.268 150.496, 105.718 152.488 C 106.698 153.835, 107.801 154.951, 108.168 154.969 C 108.536 154.986, 109.812 156.578, 111.004 158.506 C 112.196 160.435, 113.609 161.741, 114.145 161.410 C 114.732 161.048, 114.589 160.348, 113.786 159.654 C 110.586 156.885, 108.718 153.832, 108.364 150.792 C 108.155 148.994, 107.732 146.731, 107.424 145.762 C 107.117 144.793, 107.346 144, 107.933 144 C 108.520 144, 109 144.588, 109 145.308 C 109 146.424, 115.353 150, 117.336 150 C 119.113 150, 117.583 148.271, 113.992 146.220 C 109.823 143.839, 108.663 141, 111.860 141 C 112.884 141, 115.379 142.125, 117.405 143.500 C 119.431 144.875, 121.525 146, 122.058 146 C 122.591 146, 123.893 146.541, 124.952 147.202 C 126.407 148.111, 127.440 148.127, 129.188 147.267 C 130.460 146.641, 134.439 145.850, 138.032 145.508 C 141.625 145.167, 145.200 144.494, 145.978 144.014 C 148.597 142.395, 151 144.743, 151 148.920 C 151 152.826, 153.842 156, 157.340 156 C 158.177 156, 158.750 157.015, 158.750 158.500 C 158.750 159.875, 158.409 161, 157.992 161 C 156.938 161, 156.022 164.894, 156.675 166.596 C 157.044 167.556, 158.885 168, 162.500 168 C 166.609 168, 167.937 168.390, 168.465 169.750 C 169.062 171.287, 169.314 171.196, 170.537 169 C 172.676 165.158, 172.304 164.335, 168.358 164.187 C 163.340 163.999, 161.373 160.167, 164.882 157.417 C 166.031 156.517, 165.988 156.333, 164.632 156.333 C 163.735 156.333, 163 156.808, 163 157.389 C 163 157.970, 162.299 157.445, 161.443 156.223 C 160.557 154.957, 158.835 154, 157.443 154 C 155.577 154, 154.999 153.468, 154.996 151.750 C 154.994 150.512, 154.094 148.027, 152.996 146.226 C 151.898 144.425, 151 142.288, 151 141.476 C 151 139.651, 150.226 139.634, 146.876 141.382 C 139.276 145.347, 121.687 145.597, 117.179 141.804 C 113.043 138.324, 108.060 137.197, 106.463 139.382 C 104.285 142.360, 102.400 141.179, 102.942 137.176 C 103.041 136.448, 102.580 135.199, 101.918 134.402 C 101.257 133.604, 100.934 132.732, 101.203 132.464 C 102.067 131.600, 112.126 136.539, 111.299 137.421 C 110.859 137.890, 111.649 138.066, 113.053 137.813 C 114.503 137.552, 116.172 137.959, 116.917 138.756 C 117.683 139.576, 119.170 139.923, 120.495 139.591 C 121.743 139.277, 124.085 139.482, 125.700 140.045 C 127.551 140.690, 129.538 140.729, 131.069 140.151 C 133.230 139.334, 132.945 139.156, 128.500 138.545 C 122.446 137.713, 108.301 133.890, 103 131.654 C 102.175 131.306, 100.979 131.355, 100.341 131.763 M 205.116 133.679 C 205.052 134.877, 204.293 136.564, 203.429 137.429 C 202.052 138.805, 202.045 139, 203.370 139 C 205.647 139, 206.208 140.649, 204.509 142.348 C 202.407 144.450, 202.613 145, 205.500 145 C 208.432 145, 208.581 145.974, 206.361 150.652 C 203.251 157.206, 199.724 155.156, 198.496 146.082 C 197.306 137.291, 183 142.115, 183 151.307 C 183 152.238, 182.325 153, 181.500 153 C 180.675 153, 180 153.498, 180 154.106 C 180 154.714, 178.875 156.097, 177.500 157.179 C 174.683 159.394, 174.263 161, 176.500 161 C 177.325 161, 178 160.607, 178 160.126 C 178 158.724, 184.521 152, 185.880 152 C 186.571 152, 186.798 151.483, 186.395 150.830 C 185.904 150.036, 186.224 149.872, 187.388 150.319 C 188.332 150.681, 188.866 150.592, 188.576 150.122 C 188.285 149.652, 188.892 148.503, 189.924 147.569 C 191.094 146.510, 192.039 146.255, 192.433 146.891 C 192.780 147.453, 193.770 147.642, 194.633 147.311 C 196.555 146.573, 197.964 148.609, 197.985 152.152 C 197.998 154.396, 201.483 157, 204.472 157 C 207.760 157, 209.972 140.136, 207.142 136.644 C 206.632 136.015, 205.994 134.600, 205.724 133.500 C 205.266 131.638, 205.224 131.650, 205.116 133.679 M 186.049 136.441 C 185.392 137.233, 184.323 137.678, 183.675 137.429 C 183.026 137.180, 181.930 137.882, 181.239 138.988 C 179.769 141.342, 180.696 141.544, 183.441 139.468 C 184.509 138.661, 186.003 138, 186.763 138 C 187.522 138, 188.818 137.325, 189.643 136.500 C 190.976 135.167, 190.926 135, 189.194 135 C 188.122 135, 186.707 135.648, 186.049 136.441 M 192.035 173.932 C 190.931 176.095, 189.572 178.146, 189.014 178.491 C 188.456 178.836, 188.015 179.654, 188.033 180.309 C 188.070 181.604, 197 172.146, 197 170.813 C 197 168.485, 193.782 170.507, 192.035 173.932 M 105.763 173.074 C 107.003 174.490, 107.714 175.952, 107.342 176.324 C 106.971 176.696, 107.342 177, 108.167 177 C 108.992 177, 111.640 178.821, 114.051 181.047 C 119.170 185.773, 124.587 190, 125.523 190 C 125.884 190, 124.002 188.247, 121.340 186.104 C 118.678 183.961, 114.925 180.760, 113 178.991 C 104.958 171.597, 103.234 170.188, 105.763 173.074 M 123.958 175.377 C 126.410 177.920, 128.606 180, 128.838 180 C 129.789 180, 122.222 171.577, 120.916 171.183 C 120.137 170.947, 121.506 172.835, 123.958 175.377" stroke="none" fill="#e4e5e4" fill-rule="evenodd"/><path d="" stroke="none" fill="#a3a3a5" fill-rule="evenodd"/><path d="M 134.725 54.943 C 134.406 56.164, 135.013 57.548, 136.358 58.667 C 137.536 59.646, 137.938 59.806, 137.250 59.023 C 134.478 55.867, 136.953 53.968, 140.750 56.338 C 141.438 56.767, 142 56.714, 142 56.220 C 142 55.334, 137.700 53, 136.070 53 C 135.610 53, 135.005 53.874, 134.725 54.943 M 220 56 C 220 57.100, 219.550 58, 219 58 C 218.450 58, 218 59.800, 218 62 C 218 64.200, 218.375 66, 218.833 66 C 219.292 66, 219.670 65.438, 219.674 64.750 C 219.679 64.063, 220.006 61.362, 220.402 58.750 C 220.798 56.138, 220.870 54, 220.561 54 C 220.253 54, 220 54.900, 220 56 M 141.264 63.606 C 142.784 65.274, 143.758 66.909, 143.428 67.238 C 143.099 67.568, 143.692 68.300, 144.748 68.865 C 148.220 70.723, 146.850 67.713, 142.550 64.037 C 138.860 60.881, 138.746 60.843, 141.264 63.606 M 218.759 72.500 C 224.572 83.262, 226.483 91.122, 226.117 102.750 C 225.848 111.294, 226.958 113.427, 228.850 108 C 229.425 106.350, 229.532 105, 229.087 105 C 228.642 105, 228.052 101.051, 227.777 96.225 C 227.357 88.853, 226.758 86.453, 224.034 81.219 C 222.068 77.442, 221.050 74.313, 221.448 73.274 C 221.810 72.332, 221.786 71.881, 221.395 72.272 C 221.004 72.663, 220.008 72.424, 219.181 71.741 C 217.889 70.673, 217.830 70.780, 218.759 72.500 M 85 78.874 C 85 79.905, 84.412 82.493, 83.694 84.624 C 82.814 87.235, 82.600 90.784, 83.037 95.500 C 83.685 102.500, 83.685 102.500, 83.858 95.500 C 83.953 91.650, 84.640 85.912, 85.384 82.750 C 86.129 79.588, 86.347 77, 85.869 77 C 85.391 77, 85 77.843, 85 78.874 M 99.250 79.220 C 96.496 80.549, 96.497 80.519, 99.160 88.791 C 101.847 97.135, 105.239 102.381, 109.179 104.290 C 112.221 105.763, 117.394 105.480, 114.956 103.973 C 114.289 103.561, 113.989 102.828, 114.288 102.343 C 114.587 101.859, 113.170 101.622, 111.139 101.815 C 102.658 102.624, 96.402 84.989, 103.860 81.299 C 106.107 80.188, 107.657 78.991, 107.306 78.639 C 106.337 77.670, 101.783 77.999, 99.250 79.220 M 110.500 81.516 C 116.726 86.036, 120 90.469, 120.070 94.473 C 120.121 97.402, 120.348 97.969, 120.902 96.554 C 121.608 94.751, 121.712 94.788, 122.318 97.054 C 123.570 101.734, 123.114 103.839, 120.750 104.294 C 118.821 104.666, 118.892 104.747, 121.250 104.864 C 127.422 105.169, 123.753 92.236, 115.482 84.534 C 112.804 82.040, 110.138 80.014, 109.557 80.032 C 108.975 80.049, 109.400 80.717, 110.500 81.516 M 221.122 125.904 C 220.364 126.384, 220.053 127.277, 220.431 127.888 C 220.809 128.500, 220.691 129, 220.170 129 C 219.007 129, 215.438 141.772, 216.348 142.681 C 216.706 143.040, 217 142.413, 217 141.289 C 217 140.165, 217.640 138.714, 218.422 138.064 C 220.387 136.434, 222.236 131, 220.826 131 C 220.120 131, 220.085 130.574, 220.722 129.750 C 221.661 128.537, 223.159 124.984, 222.719 125.015 C 222.598 125.024, 221.880 125.423, 221.122 125.904 M 84.570 131.887 C 84.269 132.374, 84.692 133.329, 85.511 134.009 C 86.330 134.689, 87 135.784, 87 136.442 C 87 137.101, 88.473 139.409, 90.273 141.570 C 92.074 143.732, 94.735 147.075, 96.187 149 C 104.131 159.532, 107.963 161.755, 101.382 152.014 C 98.972 148.446, 97 146.159, 97 146.930 C 97 149.028, 90.090 140.800, 90.042 138.644 C 90.019 137.623, 88.871 135.900, 87.490 134.814 C 86.110 133.728, 85.237 132.426, 85.549 131.920 C 85.862 131.414, 85.893 131, 85.618 131 C 85.343 131, 84.871 131.399, 84.570 131.887 M 90.671 133.750 C 91.006 134.713, 91.788 135.950, 92.409 136.500 C 93.030 137.050, 94.106 138.625, 94.800 140 C 95.494 141.375, 95.849 141.744, 95.590 140.821 C 95.330 139.898, 94.816 137.535, 94.447 135.571 C 93.965 132.999, 93.258 132, 91.920 132 C 90.586 132, 90.234 132.493, 90.671 133.750 M 226.500 132.851 C 228.958 133.428, 229.175 133.683, 227.703 134.264 C 226.715 134.654, 225.981 135.542, 226.072 136.237 C 226.411 138.826, 225.918 139.909, 222.586 143.897 C 220.709 146.144, 218.909 148.549, 218.586 149.241 C 218.132 150.216, 217.858 150.186, 217.369 149.108 C 216.939 148.158, 216.304 148.750, 215.369 150.973 C 212.201 158.508, 213.628 157.417, 222.527 145.500 C 224.991 142.200, 227.417 138.998, 227.918 138.384 C 230.285 135.484, 229.588 132.505, 226.500 132.323 C 223.500 132.146, 223.500 132.146, 226.500 132.851" stroke="none" fill="#828284" fill-rule="evenodd"/><path d="M 161.645 48.250 C 161.321 49.487, 161.082 50.675, 161.114 50.888 C 161.145 51.102, 160.644 51.602, 160.001 51.999 C 159.235 52.473, 159.550 52.911, 160.915 53.268 C 163.275 53.885, 163.593 53.039, 161.750 51.053 C 160.735 49.959, 160.799 49.810, 162.094 50.262 C 163.333 50.694, 163.585 50.282, 163.227 48.409 C 162.657 45.423, 162.391 45.397, 161.645 48.250 M 203.500 73 C 202.400 73.473, 199.397 73.891, 196.827 73.930 C 193.369 73.982, 191.381 74.650, 189.182 76.500 C 187.548 77.875, 185.537 79, 184.713 79 C 183.888 79, 182.931 79.739, 182.584 80.641 C 182.074 81.970, 182.226 82.057, 183.381 81.098 C 184.227 80.396, 185.911 80.191, 187.515 80.593 C 189.941 81.202, 190.151 81.052, 189.543 79.136 C 189.164 77.942, 189.299 77, 189.849 77 C 190.391 77, 190.992 77.477, 191.187 78.060 C 191.401 78.703, 193.699 78.116, 197.020 76.570 C 200.034 75.167, 203.036 74.015, 203.691 74.010 C 204.346 74.004, 205.160 73.550, 205.500 73 C 206.211 71.850, 206.176 71.850, 203.500 73 M 123 76.532 C 123 76.825, 123.865 77.387, 124.923 77.782 C 126.647 78.426, 126.696 78.704, 125.398 80.475 C 124.179 82.139, 123.641 82.257, 121.989 81.225 C 119.578 79.719, 118 79.654, 118 81.059 C 118 81.641, 118.470 81.828, 119.044 81.473 C 119.618 81.118, 120.630 81.266, 121.294 81.801 C 122.904 83.100, 131.103 84.414, 130.913 83.343 C 130.354 80.194, 131.153 79.928, 134.750 82.063 C 138.500 84.289, 138.500 84.289, 135 81.249 C 132.935 79.456, 131.238 78.630, 130.862 79.233 C 130.511 79.796, 129.716 79.942, 129.095 79.559 C 128.475 79.176, 128.197 78.490, 128.478 78.036 C 128.759 77.581, 128.279 76.937, 127.412 76.605 C 125.465 75.858, 123 75.817, 123 76.532 M 177.872 83.663 C 177.118 84.577, 174.475 86.225, 172 87.325 C 169.525 88.425, 168.038 89.506, 168.695 89.727 C 169.352 89.949, 170.702 89.693, 171.695 89.159 C 174.723 87.532, 181.341 82, 180.260 82 C 179.702 82, 178.627 82.748, 177.872 83.663 M 141 85.950 C 145.462 89.529, 160.565 92.836, 164.982 91.202 C 166.810 90.526, 165.259 90.061, 157.912 89.083 C 152.735 88.393, 147.600 87.474, 146.500 87.039 C 138.132 83.733, 138.269 83.760, 141 85.950 M 140.505 110.125 C 140.901 111.431, 141.595 112.899, 142.048 113.386 C 142.501 113.873, 142.225 114.918, 141.436 115.707 C 140.646 116.497, 140.010 117.673, 140.022 118.321 C 140.034 118.970, 140.910 118.375, 141.968 117 C 143.179 115.427, 143.541 114.148, 142.946 113.550 C 142.426 113.027, 142 111.817, 142 110.859 C 142 109.901, 141.502 108.810, 140.893 108.434 C 140.134 107.965, 140.012 108.498, 140.505 110.125 M 173.921 169.750 C 172.794 171.239, 172.806 171.313, 173.998 170.250 C 175.876 168.576, 177 168.673, 177 170.510 C 177 171.340, 177.900 172.790, 179 173.732 C 180.100 174.674, 181 176.019, 181 176.722 C 181 178.248, 182.624 178.417, 183.510 176.984 C 183.856 176.425, 184.564 176.231, 185.085 176.553 C 185.606 176.875, 185.731 177.627, 185.362 178.224 C 184.948 178.893, 185.160 179.019, 185.914 178.553 C 186.586 178.138, 186.897 177.174, 186.604 176.411 C 186.311 175.648, 186.592 175.131, 187.227 175.262 C 187.862 175.393, 188.553 174.713, 188.764 173.750 C 189.236 171.590, 186.457 171.368, 185.638 173.500 C 184.652 176.070, 178 172.341, 178 169.218 C 178 167.410, 175.439 167.743, 173.921 169.750 M 131 175.881 C 131 176.440, 132.012 178.024, 133.250 179.401 C 134.488 180.778, 136.400 183.047, 137.500 184.442 C 138.600 185.838, 140.512 188.133, 141.750 189.542 C 142.988 190.950, 144 192.773, 144 193.591 C 144 194.813, 144.248 194.848, 145.389 193.789 C 146.153 193.080, 146.491 192.275, 146.139 192 C 144.409 190.647, 138.996 182.955, 138.967 181.809 C 138.889 178.749, 131 172.880, 131 175.881 M 174 183.500 C 173.006 184.697, 173.008 185.305, 174.010 186.512 C 175.555 188.373, 178 186.759, 178 183.878 C 178 181.626, 175.733 181.412, 174 183.500" stroke="none" fill="#b5b5b6" fill-rule="evenodd"/><path d="M 181 166.500 C 181 167.415, 181.933 168, 183.393 168 C 184.709 168, 186.045 167.325, 186.362 166.500 C 186.794 165.374, 186.197 165, 183.969 165 C 181.997 165, 181 165.504, 181 166.500 M 155 187.722 C 155.825 188.032, 157.690 189.118, 159.145 190.136 C 161.329 191.664, 161.886 191.740, 162.335 190.570 C 162.692 189.640, 161.817 188.783, 159.790 188.077 C 156.538 186.943, 152.041 186.610, 155 187.722" stroke="none" fill="#c9c9ca" fill-rule="evenodd"/><path d="M 188.500 85.049 C 186.300 86.635, 183.938 87.949, 183.250 87.967 C 182.563 87.985, 182 88.459, 182 89.020 C 182 90.403, 189.034 86.728, 191.405 84.106 C 193.875 81.375, 193.364 81.541, 188.500 85.049" stroke="none" fill="#cacaca" fill-rule="evenodd"/><path d="M 137.015 175.727 C 137.007 176.402, 138.125 177.691, 139.500 178.592 C 141.190 179.700, 142 181.145, 142 183.056 C 142 186.318, 143.501 187.568, 146.891 187.129 C 148.422 186.931, 150.040 187.671, 151.391 189.185 C 154.640 192.829, 159 195.384, 159 193.644 C 159 192.873, 157.703 191.705, 156.117 191.048 C 154.531 190.392, 152.263 188.738, 151.076 187.373 C 149.669 185.754, 148.286 185.092, 147.100 185.468 C 144.968 186.145, 143.331 184.465, 142.846 181.102 C 142.656 179.783, 141.600 178.208, 140.500 177.602 C 139.400 176.996, 138.169 176.050, 137.765 175.500 C 137.308 174.877, 137.025 174.963, 137.015 175.727" stroke="none" fill="#c0c1c0" fill-rule="evenodd"/><path d="M 186.244 71.664 C 185.553 71.943, 185.242 72.582, 185.553 73.085 C 185.864 73.588, 184.911 74, 183.437 74 C 181.249 74, 180.970 74.258, 181.919 75.403 C 182.813 76.480, 182.784 76.926, 181.792 77.324 C 180.970 77.653, 181.137 77.871, 182.250 77.921 C 183.223 77.965, 184 77.287, 184 76.393 C 184 75.335, 184.543 74.994, 185.590 75.396 C 188.013 76.326, 189.293 75.064, 187.799 73.219 C 186.825 72.017, 186.813 71.804, 187.750 72.367 C 188.438 72.780, 189 72.641, 189 72.059 C 189 70.938, 188.295 70.837, 186.244 71.664" stroke="none" fill="#a6a7a6" fill-rule="evenodd"/><path d="M 189.250 46.973 C 186.912 48.034, 185 49.165, 185 49.486 C 185 49.808, 186.012 49.513, 187.250 48.832 C 188.488 48.151, 191.975 47.048, 195 46.381 C 199.715 45.341, 200 45.159, 197 45.106 C 195.075 45.072, 191.588 45.912, 189.250 46.973 M 173.581 55.552 C 170.875 57.398, 168.370 58.729, 168.013 58.508 C 167.656 58.287, 166.162 60.558, 164.693 63.554 C 162.314 68.404, 161.665 69.016, 158.761 69.150 C 155.726 69.289, 155.691 69.329, 158.257 69.717 C 160.922 70.120, 166.606 66.939, 165.391 65.724 C 165.093 65.426, 165.783 64.886, 166.925 64.524 C 168.066 64.162, 169 63.261, 169 62.523 C 169 61.784, 171.363 59.126, 174.250 56.614 C 180.440 51.231, 180.281 50.979, 173.581 55.552 M 235.516 63 C 236.607 64.375, 237.886 65.781, 238.357 66.125 C 238.828 66.469, 238.665 67.089, 237.995 67.503 C 237.315 67.924, 236.391 67.648, 235.904 66.878 C 235.399 66.081, 235.024 65.976, 235.015 66.628 C 234.993 68.265, 237.734 70.282, 238.956 69.527 C 240.787 68.395, 240.090 66.456, 236.766 63.437 C 234.064 60.984, 233.858 60.912, 235.516 63 M 96.869 69.342 C 97.481 70.080, 97.779 70.888, 97.529 71.137 C 97.280 71.386, 98.409 72.093, 100.038 72.708 C 103.640 74.068, 103.968 72.856, 100.500 71 C 99.125 70.264, 98 69.288, 98 68.831 C 98 68.374, 97.495 68, 96.878 68 C 96.052 68, 96.050 68.355, 96.869 69.342 M 204 78.492 C 202.625 79.273, 200.678 79.666, 199.673 79.364 C 198.472 79.004, 196.243 80.168, 193.163 82.766 C 187.267 87.737, 180.932 91, 177.175 91 C 175.577 91, 173.197 91.835, 171.885 92.855 C 165.395 97.902, 154.225 98.303, 146.612 93.763 C 142.242 91.158, 141.562 91.009, 140.206 92.365 C 138.850 93.721, 138.271 93.669, 134.748 91.871 C 132.580 90.765, 130.626 90.041, 130.406 90.261 C 129.457 91.209, 139.880 95.173, 141.757 94.577 C 143.005 94.181, 145.174 94.760, 147.434 96.094 C 151.807 98.674, 164.481 98.487, 169.546 95.769 C 171.171 94.896, 175.425 93.183, 179 91.961 C 185.372 89.784, 189.720 87.280, 193.236 83.764 C 194.206 82.794, 195.845 82, 196.878 82 C 199.270 82, 205.667 79.348, 206.491 78.015 C 207.293 76.717, 207.036 76.766, 204 78.492 M 232 80.883 C 233.925 82.594, 236.579 85.233, 237.897 86.747 C 239.979 89.138, 240.100 89.180, 238.817 87.064 C 238.005 85.724, 235.352 83.085, 232.920 81.200 C 229.104 78.240, 228.978 78.197, 232 80.883 M 84.112 144 C 91.138 154.716, 108.586 173.667, 119.500 182.439 C 125.132 186.965, 124.260 186.022, 114.500 177.031 C 109.053 172.013, 92.598 154.135, 89.234 149.579 C 84.516 143.190, 81.243 139.625, 84.112 144 M 125.457 149.931 C 125.774 150.443, 125.575 151.144, 125.016 151.490 C 123.160 152.637, 123.965 154, 126.500 154 C 129.183 154, 129.666 154.934, 127.899 156.701 C 127.098 157.502, 127.371 157.983, 128.899 158.468 C 130.055 158.835, 131 159.753, 131 160.508 C 131 161.264, 131.520 162.203, 132.155 162.595 C 132.870 163.038, 133.038 162.870, 132.595 162.155 C 132.203 161.520, 132.261 161, 132.724 161 C 133.187 161, 133.506 159.762, 133.433 158.250 C 133.353 156.583, 133.930 155.232, 134.900 154.820 C 136.124 154.300, 135.971 154.124, 134.250 154.070 C 132.734 154.023, 132 153.383, 132 152.107 C 132 151.066, 131.288 149.941, 130.418 149.607 C 127.996 148.678, 124.811 148.886, 125.457 149.931 M 193.207 151.040 C 192.534 152.118, 191.285 153, 190.433 153 C 189.580 153, 189.162 153.453, 189.504 154.007 C 189.847 154.561, 189.385 155.299, 188.478 155.647 C 187.190 156.141, 186.974 157.046, 187.488 159.786 C 187.941 162.204, 187.735 163.552, 186.823 164.131 C 185.818 164.767, 185.921 164.973, 187.250 164.985 C 188.821 164.998, 189.457 163.896, 189.118 161.750 C 189.053 161.338, 189.675 161, 190.500 161 C 191.325 161, 192 160.130, 192 159.067 C 192 158.004, 192.900 156.849, 194 156.500 C 196.040 155.852, 196.669 152.600, 195.200 150.290 C 194.645 149.417, 194.090 149.626, 193.207 151.040 M 111.375 151.465 C 110.676 153.288, 113.497 158.007, 115.273 157.985 C 116.216 157.973, 116.223 157.793, 115.303 157.208 C 113.593 156.121, 115.400 153.517, 117.138 154.564 C 118.220 155.215, 118.209 155.025, 117.082 153.637 C 114.685 150.685, 112.058 149.684, 111.375 151.465 M 140.953 154.160 C 139.768 154.999, 139.823 155.085, 141.250 154.626 C 142.213 154.316, 143 154.425, 143 154.867 C 143 155.310, 144.912 155.733, 147.250 155.807 C 149.991 155.894, 150.967 155.646, 150 155.109 C 147.317 153.618, 142.441 153.107, 140.953 154.160 M 126 162.449 C 126 162.724, 127.237 163.598, 128.750 164.391 C 132.885 166.560, 141.839 175.763, 144.071 180.139 C 145.487 182.915, 146.681 184, 148.320 184 C 149.574 184, 151.093 184.493, 151.696 185.096 C 152.299 185.699, 154.526 186.399, 156.646 186.652 C 158.766 186.905, 161.061 187.297, 161.746 187.523 C 162.432 187.749, 163.894 186.167, 164.996 184.007 C 167.277 179.536, 167.667 177.209, 165.500 181 C 164.200 183.275, 164.068 183.315, 164.035 181.451 C 164.006 179.749, 163.366 179.410, 160.250 179.445 C 158.188 179.469, 155.449 179.111, 154.165 178.650 C 151.857 177.821, 151.850 177.841, 153.523 180.395 C 158.620 188.174, 148.100 183.586, 142.513 175.593 C 140.242 172.344, 137.494 169.357, 136.407 168.955 C 135.320 168.553, 133.804 167.469, 133.038 166.546 C 131.605 164.819, 126 161.556, 126 162.449" stroke="none" fill="#cfcece" fill-rule="evenodd"/><path d="M 226 65.424 C 226 66.282, 226.900 67.545, 228 68.232 C 229.100 68.919, 230 69.900, 230 70.412 C 230 70.924, 230.699 72.115, 231.554 73.059 C 232.408 74.004, 233.179 75.727, 233.267 76.888 C 233.394 78.587, 234.083 79, 236.785 79 C 240.145 79, 240.145 79, 238.073 76.365 C 236.933 74.916, 236 72.918, 236 71.924 C 236 69.720, 234.347 68.507, 233.710 70.244 C 233.344 71.244, 232.971 71.237, 231.883 70.208 C 230.778 69.163, 230.763 68.765, 231.806 68.120 C 233.356 67.162, 231.860 65.662, 228.250 64.555 C 226.584 64.044, 226 64.270, 226 65.424 M 242.110 77.750 C 242.050 81.188, 242.391 84, 242.868 84 C 243.346 84, 244.063 85.912, 244.461 88.250 C 244.860 90.588, 245.563 94.750, 246.024 97.500 C 246.862 102.500, 246.862 102.500, 246.464 97 C 245.636 85.573, 242.237 70.543, 242.110 77.750 M 110 142.470 C 110 143.279, 111.797 144.966, 113.992 146.220 C 117.868 148.433, 119.094 150, 116.950 150 C 114.609 150, 117.982 153.502, 120.365 153.546 C 123.863 153.609, 120.985 148.569, 116.234 146.310 C 112.256 144.418, 111.296 143.060, 113.122 141.904 C 114.145 141.256, 113.920 141.027, 112.250 141.015 C 110.930 141.006, 110 141.608, 110 142.470 M 117 143.306 C 117 143.645, 117.985 144.840, 119.189 145.961 C 121.399 148.020, 125.644 148.851, 124.500 147 C 124.160 146.450, 123.156 146, 122.270 146 C 121.383 146, 119.835 145.255, 118.829 144.345 C 117.823 143.435, 117 142.967, 117 143.306 M 145.846 144.067 C 144.964 144.560, 141.024 145.263, 137.090 145.628 C 127.347 146.534, 127.401 147.535, 137.183 147.342 C 145.370 147.179, 153 151.812, 153 156.945 C 153 158.133, 153.229 158.162, 154.250 157.105 C 155.256 156.062, 155.061 155.512, 153.250 154.283 C 151.572 153.144, 151 151.779, 151 148.913 C 151 144.660, 148.681 142.480, 145.846 144.067 M 107.506 146.019 C 107.858 147.129, 108.289 150.094, 108.463 152.608 C 108.792 157.373, 109.876 159.218, 112.582 159.615 C 113.462 159.744, 113.880 159.546, 113.508 159.175 C 113.137 158.804, 112.346 158.500, 111.750 158.500 C 111.154 158.500, 110.458 157.875, 110.204 157.111 C 109.895 156.185, 110.169 155.986, 111.025 156.515 C 111.879 157.043, 112.064 156.912, 111.575 156.122 C 108.825 151.672, 109.024 148.755, 112.036 149.357 C 115.878 150.126, 115.855 149.194, 112 147.850 C 110.350 147.275, 109 146.173, 109 145.402 C 109 144.631, 108.520 144, 107.933 144 C 107.317 144, 107.136 144.854, 107.506 146.019 M 189.569 147.924 C 188.378 149.240, 188.208 150.011, 189.001 150.501 C 189.624 150.886, 190.230 151.043, 190.349 150.850 C 190.469 150.658, 191.135 149.753, 191.832 148.839 C 193.637 146.470, 191.622 145.655, 189.569 147.924 M 195.247 148.250 C 196.143 148.938, 197.016 150.815, 197.188 152.423 C 197.360 154.030, 198.074 155.459, 198.775 155.598 C 199.476 155.737, 199.589 155.621, 199.025 155.342 C 198.461 155.062, 198 153.783, 198 152.498 C 198 149.010, 196.977 147, 195.202 147 C 193.780 147, 193.785 147.128, 195.247 148.250 M 152.750 164.689 C 149.907 165.432, 150.539 169, 153.514 169 C 156.292 169, 160.062 170.816, 161.300 172.750 C 162.424 174.507, 167.663 174.321, 168.362 172.500 C 169.605 169.260, 167.953 168, 162.460 168 C 158.013 168, 157.030 167.670, 156.500 166 C 156.151 164.900, 155.558 164.052, 155.183 164.116 C 154.807 164.180, 153.713 164.438, 152.750 164.689 M 195.340 167.477 C 193.746 169.978, 193.576 170.716, 194.691 170.288 C 195.522 169.970, 196.600 170.337, 197.086 171.104 C 197.726 172.116, 197.974 171.766, 197.985 169.832 C 197.993 168.364, 198.273 166.452, 198.607 165.582 C 199.691 162.757, 197.558 163.994, 195.340 167.477 M 142.079 171.285 C 141.880 173.261, 145.323 177.097, 146.139 175.810 C 147.641 173.441, 147.115 171.737, 145.048 172.277 C 143.974 172.558, 142.885 172.273, 142.627 171.644 C 142.369 171.015, 142.122 170.853, 142.079 171.285 M 191.133 178.181 C 189.831 179.786, 188.521 180.855, 188.223 180.556 C 187.924 180.257, 187.031 180.939, 186.238 182.071 C 183.599 185.838, 185.568 185.016, 190 180.500 C 192.406 178.048, 194.178 175.867, 193.938 175.653 C 193.697 175.439, 192.435 176.577, 191.133 178.181" stroke="none" fill="#dfdede" fill-rule="evenodd"/><path d="M 189.543 79.136 C 190.149 81.043, 189.937 81.201, 187.571 80.607 C 185.866 80.179, 184.142 80.487, 182.738 81.471 C 181.533 82.315, 181.151 83, 181.884 83 C 182.637 83, 182.972 83.631, 182.655 84.456 C 182.074 85.970, 183.041 85.525, 192.250 80.037 C 196.262 77.646, 197.467 76.144, 193.798 78.108 C 192.157 78.986, 191.498 78.995, 191.214 78.143 C 191.005 77.515, 190.391 77, 189.849 77 C 189.299 77, 189.164 77.942, 189.543 79.136 M 133.965 175.734 C 136.065 176.560, 138.928 180.219, 138.967 182.128 C 138.985 183.023, 139.787 184.351, 140.750 185.079 C 142.200 186.177, 142.299 186.177, 141.328 185.080 C 140.684 184.352, 140.367 183.206, 140.625 182.534 C 141.204 181.025, 135.701 174.971, 133.849 175.079 C 132.828 175.139, 132.856 175.298, 133.965 175.734" stroke="none" fill="#babbba" fill-rule="evenodd"/><path d="" stroke="none" fill="#bcbcbd" fill-rule="evenodd"/><path d="" stroke="none" fill="#a4a4a4" fill-rule="evenodd"/><path d="M 111.171 56.175 C 111.406 57.833, 112.960 59.217, 116.591 61 C 121.818 63.566, 129.372 68.764, 133.666 72.750 C 135 73.987, 136.320 75, 136.600 75 C 136.880 75, 139.223 75.965, 141.805 77.145 C 144.387 78.325, 148.525 79.449, 151 79.641 C 155.484 79.990, 155.481 79.987, 150 78.717 C 143.428 77.194, 135.047 73.283, 134.882 71.661 C 134.816 71.022, 134.836 69.938, 134.925 69.250 C 135.131 67.669, 133.300 67.600, 132.777 69.169 C 132.551 69.847, 129.637 68.177, 125.838 65.191 C 122.236 62.361, 119.035 60.298, 118.725 60.608 C 118.416 60.918, 117.694 60.296, 117.122 59.227 C 115.200 55.636, 110.773 53.366, 111.171 56.175 M 193.579 58.142 C 192.523 59.159, 191.960 60.294, 192.329 60.663 C 192.698 61.032, 193 60.850, 193 60.260 C 193 59.042, 196.165 59.682, 199.973 61.669 C 201.363 62.394, 203.302 62.990, 204.281 62.994 C 205.261 62.997, 206.322 63.675, 206.638 64.500 C 207.413 66.518, 211.627 66.413, 212.417 64.357 C 212.763 63.453, 212.811 62.478, 212.524 62.190 C 212.236 61.902, 212 62.192, 212 62.833 C 212 64.548, 207.312 64.257, 206.638 62.500 C 206.322 61.675, 205.331 61, 204.436 61 C 202.880 61, 197.048 58.163, 196 56.896 C 195.725 56.564, 194.636 57.124, 193.579 58.142 M 153.878 72.904 C 154.636 73.384, 154.928 74.307, 154.527 74.956 C 154.079 75.682, 154.614 76.348, 155.920 76.689 C 157.706 77.156, 157.841 77.492, 156.771 78.809 C 155.688 80.143, 155.771 80.273, 157.332 79.687 C 158.339 79.309, 159.577 79, 160.082 79 C 161.857 79, 160.973 77.324, 158.500 76 C 157.125 75.264, 156 74.063, 156 73.331 C 156 72.599, 155.213 72.007, 154.250 72.015 C 152.866 72.027, 152.788 72.213, 153.878 72.904 M 221.424 87 C 222.228 91.270, 222.342 102.637, 221.594 103.848 C 221.202 104.482, 221.385 105, 222 105 C 222.615 105, 222.859 105.419, 222.543 105.931 C 222.226 106.443, 222.455 107.163, 223.051 107.532 C 224.335 108.325, 223.260 89.730, 221.836 86.500 C 221.084 84.795, 221.023 84.868, 221.424 87 M 91.473 101.748 C 91.852 103.259, 92.240 104.573, 92.334 104.667 C 92.518 104.851, 103.980 105.218, 105.284 105.082 C 105.716 105.037, 104.688 103.650, 103 102 C 98.549 97.649, 90.399 97.471, 91.473 101.748" stroke="none" fill="#949595" fill-rule="evenodd"/><path d="M 224.711 64.622 C 223.292 66.042, 224.047 68.779, 226 69.290 C 227.207 69.605, 228 70.654, 228 71.933 C 228 74.887, 236.413 83.162, 238.574 82.333 C 239.890 81.828, 240.096 82.123, 239.575 83.765 C 239.214 84.901, 239.382 86.118, 239.948 86.468 C 240.560 86.846, 240.736 86.475, 240.382 85.552 C 240.054 84.698, 240.284 84, 240.893 84 C 243.817 84, 240.800 71.718, 237.750 71.206 C 235.391 70.810, 235.536 73.141, 238.073 76.365 C 240.145 79, 240.145 79, 236.785 79 C 234.083 79, 233.394 78.587, 233.267 76.888 C 233.179 75.727, 232.408 74.004, 231.554 73.059 C 230.699 72.115, 230 70.864, 230 70.278 C 230 69.693, 229.314 68.951, 228.476 68.629 C 227.638 68.308, 226.608 67.114, 226.187 65.977 C 225.767 64.841, 225.103 64.231, 224.711 64.622 M 131.339 93 C 133.941 94.650, 136.775 96, 137.636 96 C 138.498 96, 136.637 94.650, 133.500 93 C 130.363 91.350, 127.530 90, 127.203 90 C 126.876 90, 128.737 91.350, 131.339 93 M 145 149 C 146.100 150.100, 147 151.450, 147 152 C 147 152.550, 147.675 153, 148.500 153 C 149.325 153, 150 152.795, 150 152.545 C 150 151.676, 144.903 147, 143.955 147 C 143.430 147, 143.900 147.900, 145 149 M 150.079 168.750 C 150.011 170.673, 150.512 171, 153.531 171 C 155.748 171, 157.277 171.559, 157.638 172.500 C 157.955 173.325, 159.052 174, 160.076 174 C 161.158 174, 161.734 173.477, 161.451 172.750 C 160.822 171.135, 156.230 169, 153.384 169 C 152.164 169, 150.940 168.438, 150.662 167.750 C 150.385 167.063, 150.122 167.512, 150.079 168.750 M 146.591 174.494 C 146.197 176.064, 145.499 176.808, 144.816 176.386 C 144.176 175.991, 143.967 176.137, 144.330 176.725 C 146.061 179.526, 149.102 178.887, 148.620 175.824 C 147.982 171.781, 147.372 171.381, 146.591 174.494" stroke="none" fill="#dcdae2" fill-rule="evenodd"/><path d="M 224.711 64.622 C 223.292 66.042, 224.047 68.779, 226 69.290 C 227.207 69.605, 228 70.654, 228 71.933 C 228 74.887, 236.413 83.162, 238.574 82.333 C 239.890 81.828, 240.096 82.123, 239.575 83.765 C 239.214 84.901, 239.382 86.118, 239.948 86.468 C 240.560 86.846, 240.736 86.475, 240.382 85.552 C 240.054 84.698, 240.284 84, 240.893 84 C 243.817 84, 240.800 71.718, 237.750 71.206 C 235.391 70.810, 235.536 73.141, 238.073 76.365 C 240.145 79, 240.145 79, 236.785 79 C 234.083 79, 233.394 78.587, 233.267 76.888 C 233.179 75.727, 232.408 74.004, 231.554 73.059 C 230.699 72.115, 230 70.864, 230 70.278 C 230 69.693, 229.314 68.951, 228.476 68.629 C 227.638 68.308, 226.608 67.114, 226.187 65.977 C 225.767 64.841, 225.103 64.231, 224.711 64.622 M 131.339 93 C 133.941 94.650, 136.775 96, 137.636 96 C 138.498 96, 136.637 94.650, 133.500 93 C 130.363 91.350, 127.530 90, 127.203 90 C 126.876 90, 128.737 91.350, 131.339 93 M 145 149 C 146.100 150.100, 147 151.450, 147 152 C 147 152.550, 147.675 153, 148.500 153 C 149.325 153, 150 152.795, 150 152.545 C 150 151.676, 144.903 147, 143.955 147 C 143.430 147, 143.900 147.900, 145 149 M 150.079 168.750 C 150.011 170.673, 150.512 171, 153.531 171 C 155.748 171, 157.277 171.559, 157.638 172.500 C 157.955 173.325, 159.052 174, 160.076 174 C 161.158 174, 161.734 173.477, 161.451 172.750 C 160.822 171.135, 156.230 169, 153.384 169 C 152.164 169, 150.940 168.438, 150.662 167.750 C 150.385 167.063, 150.122 167.512, 150.079 168.750 M 146.591 174.494 C 146.197 176.064, 145.499 176.808, 144.816 176.386 C 144.176 175.991, 143.967 176.137, 144.330 176.725 C 146.061 179.526, 149.102 178.887, 148.620 175.824 C 147.982 171.781, 147.372 171.381, 146.591 174.494" stroke="none" fill="#dcdae2" fill-rule="evenodd"/><path d="M 149.194 95.264 C 151.060 96.778, 161.692 97.420, 164.949 96.214 C 166.127 95.779, 163.711 95.519, 159.246 95.601 C 154.986 95.680, 150.600 95.327, 149.500 94.817 C 147.686 93.976, 147.657 94.017, 149.194 95.264" stroke="none" fill="#c9c9d1" fill-rule="evenodd"/><path d="M 105.079 86.250 C 105.122 87.487, 105.385 87.938, 105.662 87.250 C 107.161 83.537, 116.342 90.698, 115.372 94.823 C 114.879 96.915, 115.011 97.248, 115.972 96.349 C 117.373 95.038, 116.455 89, 114.854 89 C 114.311 89, 112.434 87.987, 110.683 86.750 C 106.350 83.687, 104.985 83.565, 105.079 86.250 M 178.896 164.914 C 179.663 165.400, 180.021 166.504, 179.689 167.367 C 178.903 169.416, 179.833 169.800, 183.500 168.940 C 186.500 168.237, 186.500 168.237, 183.750 168.118 C 181.706 168.030, 181 167.486, 181 166 C 181 164.756, 180.338 164.006, 179.250 164.015 C 177.849 164.028, 177.779 164.207, 178.896 164.914" stroke="none" fill="#c0c1c8" fill-rule="evenodd"/><path d="M 115.556 72.910 C 115.247 73.410, 115.268 74.535, 115.604 75.410 C 116.025 76.507, 115.638 77.009, 114.357 77.030 C 112.679 77.058, 112.660 77.154, 114.164 78.032 C 116.158 79.196, 119 78.296, 119 76.500 C 119 75.793, 118.213 74.893, 117.250 74.500 C 115.644 73.844, 115.664 73.718, 117.500 72.963 C 119.120 72.297, 119.179 72.127, 117.809 72.070 C 116.879 72.032, 115.865 72.409, 115.556 72.910 M 177.441 81.468 C 176.374 82.276, 174.113 82.951, 172.417 82.968 C 170.721 82.986, 169.002 83.338, 168.597 83.750 C 168.193 84.162, 165.080 85.008, 161.681 85.628 C 155.500 86.756, 155.500 86.756, 161.679 86.878 C 165.970 86.963, 168.315 86.542, 169.357 85.500 C 170.182 84.675, 171.902 83.990, 173.179 83.978 C 175.096 83.959, 181.707 80.093, 179.941 80.022 C 179.634 80.010, 178.509 80.661, 177.441 81.468 M 130 98.500 C 131.866 100.425, 132.868 102, 132.228 102 C 131.587 102, 131.322 102.675, 131.638 103.500 C 132.365 105.394, 135 105.472, 135 103.600 C 135 102.253, 128.425 95, 127.204 95 C 126.876 95, 128.134 96.575, 130 98.500 M 118.175 132.966 C 119.095 133.543, 122.695 134.266, 126.175 134.572 C 130.370 134.942, 131.995 134.808, 131 134.176 C 130.175 133.651, 126.575 132.929, 123 132.570 C 118.287 132.097, 116.960 132.206, 118.175 132.966" stroke="none" fill="#abaab2" fill-rule="evenodd"/><path d="M 111.812 50.137 C 111.051 50.620, 113.650 50.943, 118 50.906 C 126.229 50.836, 126.346 50.393, 118.312 49.732 C 115.458 49.497, 112.533 49.680, 111.812 50.137 M 176.650 63.170 C 169.915 69.926, 171.667 68.855, 179.268 61.570 C 181.890 59.056, 183.757 57, 183.418 57 C 183.079 57, 180.033 59.776, 176.650 63.170 M 220 77.042 C 220 77.874, 220.603 79.443, 221.340 80.527 C 223.309 83.425, 225 93.268, 225 101.833 C 225 105.958, 225.194 109.139, 225.431 108.903 C 226.505 107.828, 226.266 93.910, 225.081 88.528 C 223.787 82.649, 220 74.090, 220 77.042 M 95 79.171 C 95 79.815, 94.255 81.165, 93.345 82.171 C 91.793 83.886, 91.817 84, 93.723 84 C 94.840 84, 96.315 84.675, 97 85.500 C 97.860 86.536, 97.898 87, 97.122 87 C 95.387 87, 95.790 88.858, 98.053 91.287 C 99.181 92.499, 99.959 94.167, 99.780 94.995 C 99.601 95.823, 100.702 97.709, 102.227 99.186 C 105.447 102.305, 105.783 101.922, 103.132 98.154 C 100.119 93.872, 96.407 80.985, 97.917 80.051 C 98.855 79.472, 98.751 79.118, 97.502 78.639 C 95.236 77.770, 95 77.820, 95 79.171 M 231.039 89.250 C 231.481 92.093, 235.908 104.899, 235.946 103.444 C 236.002 101.318, 232.132 89, 231.408 89 C 231.184 89, 231.017 89.112, 231.039 89.250" stroke="none" fill="#8e8f97" fill-rule="evenodd"/><path d="M 127.648 17.475 C 126.560 20.310, 126.862 20.566, 130.844 20.186 C 132.958 19.985, 136.432 20.301, 138.564 20.890 C 143.247 22.183, 145.317 20.889, 142.720 18.291 C 140.212 15.784, 128.540 15.152, 127.648 17.475 M 100.077 53.564 C 89.179 58.292, 83 66.241, 83 75.530 C 83 79.560, 82.108 83.281, 79.833 88.746 C 78.092 92.929, 76.667 97.605, 76.667 99.135 C 76.667 100.828, 76.047 102.084, 75.083 102.343 C 74.213 102.577, 75.721 102.820, 78.436 102.884 C 82.023 102.968, 84.063 103.615, 85.905 105.250 C 88.054 107.157, 88.223 107.195, 87.019 105.500 C 86.237 104.400, 85.047 103.025, 84.374 102.444 C 81.351 99.838, 83.246 79.836, 86.875 76.045 C 87.839 75.037, 87.919 74.473, 87.134 74.211 C 85.469 73.656, 85.751 71.909, 87.750 70.392 C 88.819 69.581, 89.013 69.051, 88.250 69.032 C 87.563 69.014, 87 68.325, 87 67.500 C 87 65.733, 88.660 65.481, 89.221 67.163 C 89.646 68.437, 95 64.315, 95 62.714 C 95 61.319, 99.915 55.733, 102.883 53.757 C 106.063 51.638, 104.726 51.546, 100.077 53.564 M 216.800 53.200 C 217.460 53.860, 218 55.210, 218 56.200 C 218 57.190, 218.450 58, 219 58 C 220.642 58, 220.131 53.264, 218.418 52.607 C 216.007 51.682, 215.476 51.876, 216.800 53.200 M 131.640 54.773 C 131.040 55.745, 141.319 66.526, 143.721 67.443 C 145.518 68.130, 140.549 62.324, 136.296 58.769 C 135.063 57.739, 134.339 56.281, 134.652 55.463 C 135.235 53.945, 132.535 53.326, 131.640 54.773 M 185 57.369 C 179.577 61.368, 170.718 70, 172.037 70 C 172.555 70, 175.350 67.862, 178.248 65.250 C 181.146 62.638, 185.303 59.038, 187.486 57.250 C 192.674 53.003, 190.798 53.092, 185 57.369 M 150.250 59.434 C 148.859 60.077, 148 61.363, 148 62.803 C 148 64.084, 147.549 65.975, 146.997 67.005 C 146.327 68.257, 146.327 69.084, 146.997 69.498 C 147.549 69.839, 148 69.601, 148 68.969 C 148 67.552, 152.046 64.079, 153.750 64.033 C 154.438 64.015, 155 62.923, 155 61.607 C 155 58.764, 153.340 58.005, 150.250 59.434 M 218 68.378 C 218 69.685, 218.675 71.315, 219.500 72 C 220.325 72.685, 221.001 73.752, 221.002 74.372 C 221.003 74.993, 222.415 78.176, 224.139 81.447 C 226.757 86.414, 227.356 88.844, 227.775 96.197 C 228.052 101.039, 228.654 105, 229.114 105 C 229.574 105, 229.512 106.154, 228.975 107.565 C 228.439 108.976, 228.036 110.888, 228.079 111.815 C 228.122 112.742, 228.640 112.150, 229.229 110.500 C 230.625 106.590, 231.442 106.147, 236.377 106.619 C 239.988 106.964, 240.184 106.886, 237.953 105.991 C 235.876 105.157, 234.790 103.169, 232.078 95.234 C 228.918 85.986, 227.052 81.994, 222.152 74 C 220.973 72.075, 220.006 69.487, 220.004 68.250 C 220.002 67.013, 219.550 66, 219 66 C 218.450 66, 218 67.070, 218 68.378 M 100.236 87.404 C 100.977 93.978, 106.475 102, 110.240 102 C 111.837 102, 113.818 102.675, 114.643 103.500 C 115.976 104.833, 115.968 105, 114.571 105 C 113.707 105, 113 105.498, 113 106.106 C 113 106.714, 111.602 109.077, 109.894 111.356 C 106.789 115.500, 106.789 115.500, 110.644 111.235 C 114.094 107.418, 114.970 106.971, 118.966 106.985 C 123.432 107, 123.432 107, 117.966 112.750 C 112.501 118.500, 112.501 118.500, 118.703 112.578 C 125.208 106.367, 125.621 105.088, 121.191 104.864 C 118.834 104.745, 118.779 104.674, 120.750 104.294 C 123.101 103.841, 123.570 101.732, 122.341 97.142 C 121.724 94.836, 121.681 94.852, 120.403 97.892 C 119.145 100.884, 117.383 101.631, 113 101.032 C 109.275 100.522, 102 90.297, 102 85.572 C 102 84.157, 101.491 83, 100.870 83 C 100.126 83, 99.909 84.504, 100.236 87.404 M 94.100 107.750 C 94.155 108.713, 94.595 110.625, 95.078 112 C 95.776 113.986, 95.849 113.730, 95.433 110.750 C 94.909 107, 94.909 107, 99.388 107 C 103.507 107, 103.901 107.221, 104.284 109.750 C 104.671 112.310, 104.711 112.275, 104.850 109.250 C 105 106, 105 106, 99.500 106 C 94.891 106, 94.016 106.283, 94.100 107.750 M 215.475 106.744 C 218.211 106.955, 221.023 107.604, 221.725 108.186 C 222.560 108.879, 223 108.894, 223 108.229 C 223 106.681, 220.324 105.981, 215.168 106.180 C 210.500 106.360, 210.500 106.360, 215.475 106.744 M 226.244 115.322 C 226.145 116.520, 224.924 120.304, 223.532 123.730 C 222.139 127.157, 221 130.194, 221 130.480 C 221 130.766, 223.363 130.919, 226.250 130.820 C 231.500 130.640, 231.500 130.640, 226.865 130.270 C 222.230 129.900, 222.230 129.900, 224.232 124.700 C 227.151 117.118, 227.944 114.084, 227.138 113.586 C 226.746 113.343, 226.343 114.124, 226.244 115.322 M 93.164 121.901 C 90.493 124.654, 89.648 125.056, 88.929 123.920 C 88.222 122.803, 88.024 122.927, 88 124.500 C 87.977 125.979, 87.749 126.153, 87.124 125.166 C 86.458 124.116, 86.106 124.223, 85.467 125.666 C 83.704 129.648, 84.120 131.923, 87.063 134.399 C 88.678 135.759, 90 137.605, 90 138.503 C 90 139.981, 91.965 142.771, 98.097 150 C 100.217 152.500, 100.217 152.500, 98.800 150 C 98.020 148.625, 96.551 145.250, 95.536 142.500 C 94.520 139.750, 93.084 137.140, 92.345 136.700 C 91.605 136.260, 91 135.304, 91 134.575 C 91 133.846, 89.537 132.888, 87.750 132.447 C 84.643 131.678, 84.742 131.614, 90 130.985 C 95.500 130.326, 95.500 130.326, 91.034 130.163 C 86.568 130, 86.568 130, 91.976 124.525 C 94.950 121.513, 97.184 118.918, 96.941 118.757 C 96.699 118.595, 94.999 120.011, 93.164 121.901 M 124 125.817 C 124 127.819, 129.263 131, 132.385 130.885 C 135.287 130.778, 135.231 130.718, 131.562 130.012 C 129.396 129.595, 126.808 128.247, 125.812 127.016 C 124.815 125.785, 124 125.246, 124 125.817 M 195.884 130.288 C 196.320 130.722, 201.137 130.944, 206.588 130.782 C 216.500 130.488, 216.500 130.488, 205.796 129.994 C 199.908 129.722, 195.448 129.855, 195.884 130.288 M 59.750 130.732 C 62.087 130.943, 65.912 130.943, 68.250 130.732 C 70.588 130.522, 68.675 130.349, 64 130.349 C 59.325 130.349, 57.412 130.522, 59.750 130.732 M 221 133.249 C 221 134.063, 220.100 135.874, 219 137.273 C 217.595 139.059, 217 141.330, 217 144.908 C 217 150.670, 217.730 151.194, 220.251 147.244 C 221.214 145.735, 223.119 142.982, 224.484 141.127 C 225.849 139.272, 226.680 137.291, 226.330 136.725 C 225.981 136.160, 226.524 135.090, 227.538 134.348 C 229.318 133.047, 229.315 133, 227.441 132.986 C 226.374 132.979, 224.488 132.701, 223.250 132.370 C 221.658 131.943, 221 132.200, 221 133.249" stroke="none" fill="#808087" fill-rule="evenodd"/><path d="M 202.485 55.048 C 201.772 57.293, 203.658 60.329, 205.181 59.388 C 205.705 59.064, 206.382 59.744, 206.684 60.899 C 207.506 64.043, 212 63.809, 212 60.622 C 212 59.315, 211.325 57.685, 210.500 57 C 209.675 56.315, 209 55.135, 209 54.378 C 209 53.620, 208.550 53, 208 53 C 207.450 53, 207 53.540, 207 54.200 C 207 55.133, 206.733 55.133, 205.800 54.200 C 204.087 52.487, 203.228 52.707, 202.485 55.048 M 120.600 56.600 C 119.652 59.071, 119.876 59.824, 121.750 60.454 C 122.713 60.777, 125.441 62.824, 127.814 65.001 C 134.643 71.269, 136.233 68.324, 129.563 61.759 C 123.305 55.599, 121.404 54.505, 120.600 56.600 M 135.380 69.452 C 133.981 73.099, 149.063 80.022, 154.236 78.108 C 156.929 77.112, 153.957 75.012, 149.816 74.985 C 145.699 74.958, 139.527 72.303, 138.513 70.123 C 137.364 67.651, 136.169 67.396, 135.380 69.452 M 92.168 80.750 C 91.184 83.267, 90.629 87.623, 90.894 90.750 C 90.952 91.438, 92.081 92, 93.402 92 C 95.172 92, 96.080 92.789, 96.850 95 C 97.425 96.650, 98.367 98, 98.942 98 C 100.320 98, 109 106.580, 109 107.942 C 109 108.524, 108.438 109.007, 107.750 109.015 C 106.917 109.026, 107.001 109.353, 108 109.997 C 109.070 110.686, 109.858 110.483, 110.750 109.290 C 112.519 106.923, 112.318 106.075, 109.750 105.068 C 106.458 103.776, 99.445 96.641, 99.777 94.921 C 99.933 94.108, 99.148 92.462, 98.031 91.263 C 95.788 88.856, 95.392 87, 97.122 87 C 97.898 87, 97.860 86.536, 97 85.500 C 95.326 83.484, 93.250 83.604, 92.689 85.750 C 92.326 87.140, 92.208 87.062, 92.116 85.372 C 92.052 84.202, 92.675 82.685, 93.500 82 C 95.129 80.648, 95.540 78, 94.121 78 C 93.638 78, 92.759 79.237, 92.168 80.750 M 220.028 79.027 C 220.044 79.287, 220.933 81.975, 222.004 85 C 223.765 89.971, 223.893 90.115, 223.334 86.500 C 222.861 83.435, 219.891 76.723, 220.028 79.027 M 223.992 100.205 C 223.721 104.992, 223.858 108.550, 224.295 108.110 C 224.732 107.670, 224.953 103.753, 224.786 99.405 C 224.483 91.500, 224.483 91.500, 223.992 100.205 M 170.064 180.874 C 168.522 183.897, 168.358 184.800, 169.425 184.390 C 170.856 183.841, 173.400 178.067, 172.574 177.241 C 172.335 177.002, 171.206 178.637, 170.064 180.874" stroke="none" fill="#8f8f96" fill-rule="evenodd"/><path d="M 117.566 72.973 C 116.033 73.514, 115.917 73.831, 117.007 74.505 C 117.837 75.017, 118.526 74.922, 118.746 74.263 C 119.092 73.225, 120.566 73.455, 126.500 75.471 C 128.358 76.103, 128.371 76.068, 126.676 74.985 C 123.792 73.140, 119.672 72.230, 117.566 72.973 M 119 76.056 C 119 76.729, 118.213 77.928, 117.250 78.721 C 115.588 80.090, 115.590 80.135, 117.290 79.598 C 118.274 79.287, 119.914 79.554, 120.935 80.192 C 122.419 81.118, 123.128 81.015, 124.467 79.676 C 126.035 78.108, 126.005 78, 124.012 78 C 122.841 78, 122.160 78.450, 122.500 79 C 122.840 79.550, 122.647 80, 122.071 80 C 121.495 80, 121.131 79.037, 121.262 77.860 C 121.393 76.683, 120.938 75.521, 120.250 75.277 C 119.563 75.033, 119 75.384, 119 76.056 M 134.440 79.903 C 135.537 81.679, 140.978 84.158, 142.817 83.720 C 143.946 83.452, 143.512 83.064, 141.500 82.541 C 139.850 82.113, 137.432 81.094, 136.127 80.277 C 134.822 79.461, 134.063 79.292, 134.440 79.903 M 176.500 83 C 176.160 83.550, 174.751 84, 173.370 84 C 171.988 84, 170.147 84.710, 169.278 85.579 C 168.093 86.764, 166.140 87.075, 161.442 86.829 C 158.001 86.648, 155.395 86.838, 155.651 87.250 C 156.640 88.838, 167.781 87.984, 172.331 85.972 C 176.260 84.234, 179.233 82, 177.618 82 C 177.343 82, 176.840 82.450, 176.500 83" stroke="none" fill="#adadb1" fill-rule="evenodd"/><path d="M 106.687 56.805 C 103.915 59.698, 102.946 62.120, 105.363 60.114 C 106.473 59.193, 106.629 59.495, 106.202 61.741 C 105.759 64.074, 105.903 64.314, 107.141 63.292 C 108.762 61.953, 111.721 62.387, 117 64.736 C 121.999 66.960, 122.273 67.117, 128.168 71.130 C 145.616 83.008, 171 86.123, 171 76.386 C 171 75.624, 171.525 75, 172.167 75 C 172.808 75, 173.036 74.703, 172.673 74.339 C 172.310 73.976, 171.222 74.345, 170.256 75.160 C 168.432 76.699, 162.968 76.922, 159.500 75.599 C 157.536 74.850, 157.535 74.865, 159.427 76.408 C 164.141 80.252, 149.562 80.940, 141.805 77.240 C 139.223 76.008, 136.880 75, 136.600 75 C 136.320 75, 135 73.987, 133.666 72.750 C 129.372 68.764, 121.818 63.566, 116.591 61 C 113.039 59.256, 111.403 57.820, 111.180 56.250 C 110.763 53.310, 109.938 53.412, 106.687 56.805 M 190 60.229 C 187.525 62.445, 185.613 64.650, 185.750 65.129 C 185.887 65.608, 185.615 65.888, 185.144 65.750 C 184.318 65.509, 174.830 73.848, 173.522 75.964 C 172.235 78.046, 175.075 76.929, 177.157 74.534 C 178.337 73.178, 179.655 72.287, 180.087 72.554 C 180.519 72.821, 184.135 71.481, 188.123 69.576 C 192.110 67.671, 195.851 66.416, 196.436 66.786 C 199.311 68.607, 207.102 67.709, 206.798 65.592 C 206.633 64.448, 205.605 63.360, 204.500 63.162 C 203.400 62.964, 201.036 62.120, 199.246 61.286 C 197.457 60.451, 195.094 60.004, 193.996 60.291 C 191.539 60.933, 191.365 59.455, 193.742 58.125 C 194.700 57.589, 195.262 56.936, 194.992 56.675 C 194.721 56.413, 192.475 58.013, 190 60.229 M 213.150 60.168 C 212.919 64.286, 211.961 66, 209.893 66 C 208.852 66, 208 66.450, 208 67 C 208 67.550, 208.911 68, 210.025 68 C 212.400 68, 214.296 63.901, 213.698 60.059 C 213.300 57.500, 213.300 57.500, 213.150 60.168 M 94 76.039 C 92.922 76.764, 93.732 76.911, 96.876 76.564 C 99.283 76.298, 101.496 75.838, 101.793 75.540 C 102.783 74.550, 95.524 75.014, 94 76.039 M 217.979 79 C 217.817 80.925, 217.777 83.175, 217.890 84 C 220.279 101.449, 220.014 104.409, 216 105.118 C 213.072 105.636, 213.398 105.745, 218 105.789 C 221.025 105.818, 222.935 105.614, 222.244 105.336 C 221.553 105.057, 221.282 104.353, 221.641 103.772 C 222.736 102, 221.974 88.998, 220.518 84.618 C 219.766 82.353, 218.953 79.375, 218.711 78 C 218.349 75.939, 218.221 76.114, 217.979 79 M 124 93.155 C 124 93.486, 124.634 95.273, 125.409 97.128 C 126.184 98.983, 126.572 101.788, 126.271 103.361 C 125.767 105.999, 125.911 106.165, 128.112 105.487 C 131.444 104.461, 131.731 104.007, 129.894 102.664 C 129.012 102.020, 127.940 100.369, 127.511 98.996 C 126.744 96.544, 124 91.978, 124 93.155 M 122.991 111.511 C 122.311 112.330, 122.032 113, 122.371 113 C 122.710 113, 122.022 114.110, 120.843 115.466 C 119.663 116.822, 118.364 117.725, 117.954 117.472 C 117.545 117.219, 116.952 117.684, 116.636 118.506 C 115.940 120.320, 117.142 120.458, 118.842 118.758 C 119.830 117.770, 120.275 117.820, 121.026 119.008 C 121.776 120.193, 121.973 120.023, 121.985 118.179 C 122.003 115.351, 124.571 112.353, 125.341 114.259 C 125.616 114.942, 125.878 114.514, 125.921 113.309 C 126.023 110.493, 124.573 109.604, 122.991 111.511 M 158.750 137.732 C 161.088 137.943, 164.912 137.943, 167.250 137.732 C 169.588 137.522, 167.675 137.349, 163 137.349 C 158.325 137.349, 156.412 137.522, 158.750 137.732 M 101.500 158 C 104.766 161.300, 107.662 164, 107.937 164 C 108.212 164, 105.766 161.300, 102.500 158 C 99.234 154.700, 96.338 152, 96.063 152 C 95.788 152, 98.234 154.700, 101.500 158 M 194.490 182.016 C 194.144 182.575, 193.443 182.774, 192.931 182.457 C 192.419 182.141, 192 182.373, 192 182.973 C 192 183.573, 190.988 184.471, 189.750 184.969 C 187.938 185.697, 187.852 185.886, 189.309 185.937 C 190.420 185.976, 190.871 186.482, 190.478 187.250 C 190.127 187.938, 191.081 187.150, 192.599 185.500 C 194.117 183.850, 195.761 182.624, 196.254 182.775 C 196.746 182.926, 196.864 182.588, 196.515 182.025 C 195.719 180.736, 195.282 180.735, 194.490 182.016 M 168.624 188.703 C 167.158 190.662, 166.560 190.914, 165.889 189.855 C 165.265 188.870, 165.026 189.124, 165.015 190.785 C 164.997 193.557, 168.206 192.352, 170.058 188.891 C 171.660 185.898, 170.807 185.786, 168.624 188.703 M 150 198.904 C 150 200.566, 154.160 203.344, 157.137 203.670 C 159.816 203.963, 160.079 203.800, 159.005 202.505 C 158.317 201.677, 157.248 200.997, 156.628 200.994 C 156.007 200.990, 154.262 200.342, 152.750 199.553 C 151.238 198.764, 150 198.472, 150 198.904" stroke="none" fill="#9c9ca0" fill-rule="evenodd"/><path d="M 108.500 64.365 C 108.500 66.213, 108.956 66.513, 111.250 66.177 C 112.763 65.955, 114 66.224, 114 66.775 C 114 67.326, 115.577 68.073, 117.504 68.435 C 121.169 69.122, 132.641 74.611, 133.577 76.124 C 133.874 76.606, 134.879 76.996, 135.809 76.991 C 136.739 76.985, 135.475 75.787, 133 74.326 C 130.525 72.866, 126.860 70.396, 124.856 68.836 C 122.852 67.276, 120.590 66, 119.829 66 C 119.068 66, 117.557 65.393, 116.473 64.652 C 112.617 62.017, 108.500 61.869, 108.500 64.365 M 178 70.500 C 176.708 71.875, 175.248 73, 174.754 73 C 173.599 73, 170.899 75.689, 171.025 76.714 C 171.460 80.243, 151.222 83.310, 144.500 80.734 C 143.400 80.312, 144.300 80.863, 146.500 81.957 C 151.442 84.416, 152.190 84.432, 164.250 82.342 C 170.831 81.201, 174 80.221, 174 79.326 C 174 78.500, 175.225 77.994, 177.250 77.985 C 179.697 77.973, 180.129 77.734, 179 77.015 C 177.719 76.201, 177.697 75.727, 178.848 73.781 C 179.961 71.898, 179.736 71.980, 177.558 74.250 C 175.233 76.673, 173 77.812, 173 76.575 C 173 76.342, 174.912 74.321, 177.250 72.086 C 179.588 69.851, 181.241 68.017, 180.924 68.011 C 180.608 68.005, 179.292 69.125, 178 70.500 M 216.824 86.659 C 216.645 88.221, 216.880 91.525, 217.346 94 C 217.813 96.475, 218.230 99.940, 218.274 101.700 C 218.318 103.459, 218.780 104.636, 219.300 104.314 C 219.846 103.977, 219.954 101.562, 219.556 98.615 C 219.176 95.802, 218.748 91.590, 218.604 89.255 C 218.292 84.171, 217.279 82.694, 216.824 86.659 M 237.362 100.502 C 237.713 101.416, 238 102.802, 238 103.582 C 238 104.362, 238.900 105, 240 105 C 242.657 105, 242.523 104.214, 239.362 101.285 C 237.578 99.632, 236.931 99.378, 237.362 100.502 M 123.250 114.496 C 122.563 115.277, 122.052 116.947, 122.116 118.208 C 122.220 120.267, 122.285 120.297, 122.751 118.500 C 123.270 116.500, 123.270 116.500, 124.065 118.500 C 124.680 120.050, 124.875 119.656, 124.930 116.750 C 125.008 112.549, 124.988 112.522, 123.250 114.496" stroke="none" fill="#a3a2a6" fill-rule="evenodd"/><path d="M 112.183 71.078 C 111.266 72.547, 111.193 73.528, 111.934 74.420 C 112.511 75.115, 112.687 75.980, 112.325 76.342 C 111.963 76.704, 112.636 77, 113.822 77 C 115.459 77, 115.919 76.461, 115.738 74.753 C 115.245 70.101, 124.203 71.542, 132.880 77.512 C 135.670 79.430, 138.656 81, 139.516 81 C 140.376 81, 142.974 81.971, 145.290 83.157 C 150.210 85.678, 165.991 86.409, 168.182 84.218 C 168.852 83.548, 170.624 83, 172.119 83 C 174.909 83, 180.982 80.092, 180.994 78.750 C 180.997 78.338, 179.602 78, 177.893 78 C 175.552 78, 174.927 78.367, 175.358 79.490 C 175.754 80.521, 175.094 81.154, 173.215 81.548 C 171.722 81.860, 168.475 82.576, 166 83.139 C 157.436 85.087, 149.690 84.377, 143.074 81.037 C 139.765 79.367, 136.407 78, 135.612 78 C 134.817 78, 134.017 77.605, 133.833 77.123 C 132.127 72.633, 114.318 67.661, 112.183 71.078 M 126.327 95 C 127.264 96.375, 128.546 98.513, 129.176 99.750 C 129.806 100.987, 131.012 102, 131.857 102 C 133.252 102, 132.101 100.446, 125.564 93.500 C 125.047 92.950, 125.390 93.625, 126.327 95 M 215 98 C 215 101.325, 215.419 103.005, 216.250 103.015 C 217.083 103.026, 217 103.354, 216 104 C 215.099 104.582, 214.975 104.975, 215.691 104.985 C 217.714 105.011, 218.202 103.107, 217.494 97.954 C 216.610 91.531, 215 91.561, 215 98 M 236.004 94.128 C 235.992 96.027, 239.148 101.843, 240.463 102.347 C 242.204 103.015, 242.574 101.473, 240.919 100.450 C 240.324 100.082, 238.976 98.368, 237.923 96.641 C 236.869 94.913, 236.006 93.783, 236.004 94.128 M 120.498 127.997 C 121.050 128.891, 119.769 129.426, 117.786 129.130 C 117.393 129.072, 117.363 129.783, 117.720 130.711 C 118.125 131.769, 118.516 131.952, 118.766 131.201 C 119.060 130.321, 119.734 130.400, 121.305 131.501 C 125.468 134.417, 129.369 133.501, 126.406 130.304 C 124.036 127.747, 119.169 125.846, 120.498 127.997" stroke="none" fill="#a6a6ab" fill-rule="evenodd"/><path d="" stroke="none" fill="#babbbf" fill-rule="evenodd"/><path d="M 134.356 86.488 C 134.435 87.857, 135.092 89.204, 135.815 89.482 C 136.743 89.838, 136.944 89.399, 136.498 87.994 C 135.783 85.740, 136.291 85.550, 139.066 87.035 C 140.130 87.605, 141 87.841, 141 87.561 C 141 87.064, 135.540 84, 134.655 84 C 134.411 84, 134.276 85.120, 134.356 86.488 M 122.625 163.822 C 120.072 164.332, 125.574 171, 128.547 171 C 129.818 171, 131.564 171.707, 132.429 172.571 C 133.293 173.436, 134 173.822, 134 173.431 C 134 171.858, 124.131 163.522, 122.625 163.822 M 176 166.500 C 174.947 167.768, 175.160 168, 177.378 168 C 179.042 168, 180 167.452, 180 166.500 C 180 165.675, 179.380 165, 178.622 165 C 177.865 165, 176.685 165.675, 176 166.500" stroke="none" fill="#c1bec4" fill-rule="evenodd"/><path d="M 108.362 84.500 C 108.732 85.465, 108.324 86.023, 107.219 86.063 C 105.885 86.113, 105.981 86.321, 107.648 86.993 C 109.718 87.829, 111.773 90, 110.493 90 C 110.150 90, 108.998 89.534, 107.934 88.965 C 105.226 87.516, 105.514 88.377, 109.104 92.465 C 112.531 96.369, 114.435 96.903, 115.467 94.250 C 115.957 92.990, 115.100 91.590, 112.407 89.250 C 110.350 87.463, 109.137 86, 109.711 86 C 110.285 86, 111.315 86.675, 112 87.500 C 112.685 88.325, 113.724 89, 114.310 89 C 114.895 89, 114.081 87.650, 112.500 86 C 109.416 82.781, 107.425 82.060, 108.362 84.500 M 137.361 88.499 C 137.841 89.749, 137.203 89.928, 133.721 89.521 C 129.500 89.028, 129.500 89.028, 133.916 90.499 C 136.903 91.493, 138.722 91.646, 139.536 90.970 C 140.367 90.281, 142.405 90.747, 146.120 92.476 C 150.481 94.506, 152.921 94.957, 159 94.855 C 166.500 94.730, 166.500 94.730, 157.752 93.886 C 151.891 93.321, 147.601 92.297, 144.752 90.783 C 137.871 87.126, 136.695 86.762, 137.361 88.499 M 132.163 170.107 C 135.821 173.741, 139.556 176.999, 140.464 177.348 C 142.451 178.110, 131.550 167.403, 128.007 165.112 C 126.635 164.225, 128.506 166.473, 132.163 170.107 M 114 175.500 C 117.543 179.075, 120.667 182, 120.942 182 C 121.217 182, 118.543 179.075, 115 175.500 C 111.457 171.925, 108.333 169, 108.058 169 C 107.783 169, 110.457 171.925, 114 175.500 M 151.964 187.461 C 153.275 188.858, 155.170 190, 156.174 190 C 157.178 190, 158 190.364, 158 190.809 C 158 191.254, 158.618 192.462, 159.372 193.495 C 160.679 195.281, 160.739 195.260, 160.622 193.064 C 160.531 191.346, 159.107 190.012, 155.039 187.840 C 149.580 184.923, 149.579 184.923, 151.964 187.461" stroke="none" fill="#c6c4cb" fill-rule="evenodd"/><path d="M 120 44.974 C 121.925 45.383, 124.850 46.011, 126.500 46.368 C 129.232 46.960, 129.188 46.890, 126 45.585 C 124.075 44.797, 121.150 44.170, 119.500 44.191 C 116.583 44.229, 116.597 44.251, 120 44.974 M 185.413 48.093 C 181.061 50.344, 175.740 53.229, 173.590 54.504 C 171.439 55.780, 168.851 56.664, 167.840 56.469 C 166.502 56.211, 166.004 56.713, 166.015 58.307 C 166.024 59.513, 166.361 60.050, 166.765 59.500 C 167.169 58.950, 168.081 58.381, 168.792 58.236 C 169.503 58.091, 171.978 56.775, 174.292 55.312 C 185.958 47.939, 191.416 45.655, 199 44.975 C 206.500 44.302, 206.500 44.302, 199.913 44.151 C 194.006 44.016, 192.507 44.423, 185.413 48.093 M 224.250 63.662 C 220.571 65.147, 224.283 72.504, 232.936 80.876 C 239.531 87.258, 243.963 94.302, 244.079 98.588 C 244.158 101.500, 244.158 101.500, 245.169 98.729 C 245.866 96.819, 245.842 94.985, 245.090 92.830 C 244.491 91.109, 244 88.419, 244 86.851 C 244 84.618, 243.543 84, 241.893 84 C 240.400 84, 239.959 84.452, 240.382 85.552 C 240.736 86.475, 240.560 86.846, 239.948 86.468 C 239.382 86.118, 239.214 84.901, 239.575 83.765 C 240.096 82.123, 239.890 81.828, 238.574 82.333 C 236.413 83.162, 228 74.887, 228 71.933 C 228 70.636, 227.203 69.604, 225.948 69.276 C 223.052 68.519, 223.782 64.780, 227 63.891 C 228.925 63.358, 229.040 63.195, 227.500 63.179 C 226.400 63.167, 224.938 63.385, 224.250 63.662 M 233.466 67.403 C 235.648 69.461, 237.898 71.224, 238.466 71.322 C 239.035 71.420, 240.028 72.850, 240.674 74.500 C 241.848 77.500, 241.848 77.500, 241.909 74.500 C 241.986 70.683, 240.775 68.765, 238.774 69.533 C 237.846 69.889, 236.655 69.356, 235.854 68.226 C 235.109 67.176, 233.375 65.720, 232 64.990 C 230.249 64.060, 230.688 64.783, 233.466 67.403 M 157.500 66.078 C 159.132 66.843, 158.907 66.954, 156.274 66.684 C 153.691 66.419, 153.267 66.617, 154.147 67.677 C 155.900 69.789, 161.747 69.342, 163 67 C 163.995 65.141, 163.769 65.005, 159.785 65.070 C 156.334 65.127, 155.889 65.323, 157.500 66.078 M 177.235 92.489 C 173.789 93.703, 170.679 94.987, 170.324 95.342 C 169.355 96.311, 180.123 92.991, 183 91.433 C 186.476 89.552, 184.588 89.897, 177.235 92.489 M 132.303 92.351 C 133.295 93.147, 133.720 93.956, 133.247 94.149 C 132.775 94.342, 133.988 95.828, 135.944 97.452 C 139.500 100.404, 139.500 100.404, 136.500 97.083 C 133.514 93.778, 133.511 93.766, 136 94.505 C 139.219 95.462, 138.425 94.697, 134 92.579 C 131.530 91.396, 131.031 91.329, 132.303 92.351 M 140.500 95 C 138.408 95.899, 138.611 95.994, 143.500 96.408 C 145.150 96.548, 147.400 97.011, 148.500 97.438 C 149.600 97.864, 149.027 97.265, 147.226 96.106 C 143.629 93.792, 143.399 93.754, 140.500 95 M 112 142.980 C 112 143.518, 113.800 144.878, 116 146 C 120.837 148.468, 121.264 147.370, 116.681 144.250 C 113.055 141.781, 112 141.495, 112 142.980 M 126.792 147.925 C 121.139 148.715, 120.986 148.846, 122.142 151.906 C 123.018 154.224, 123.102 154.243, 124.437 152.417 C 125.199 151.375, 125.611 150.180, 125.352 149.761 C 124.791 148.852, 128.183 148.749, 130.418 149.607 C 131.288 149.941, 132 150.973, 132 151.900 C 132 153.337, 133.170 153.591, 139.908 153.618 C 145.708 153.642, 148.528 154.116, 150.482 155.396 C 153.102 157.113, 153.128 157.107, 152.038 155.071 C 151.428 153.932, 150.118 153, 149.125 153 C 148.133 153, 146.838 151.940, 146.248 150.645 C 144.697 147.241, 138.196 146.332, 126.792 147.925 M 86 148.415 C 86 148.969, 89.630 153.317, 94.317 158.379 C 96.417 160.645, 95.572 159.238, 92.440 155.250 C 87.185 148.560, 86 147.302, 86 148.415 M 191.323 149.935 C 190.351 151.071, 189.077 152, 188.492 152 C 187.907 152, 187.429 152.905, 187.429 154.012 C 187.429 155.118, 187.895 155.850, 188.464 155.637 C 189.034 155.424, 189.387 154.744, 189.250 154.125 C 189.113 153.506, 189.649 153, 190.443 153 C 191.237 153, 192.562 152.035, 193.388 150.856 C 194.884 148.721, 194.892 148.723, 195.532 151.606 C 196.606 156.443, 196.931 156.692, 196.710 152.508 C 196.463 147.820, 194.101 146.691, 191.323 149.935 M 109.716 151.023 C 110.192 152.844, 110.364 152.884, 111.430 151.426 C 112.497 149.968, 112.961 150.077, 116.058 152.516 C 119.500 155.227, 119.500 155.227, 116.234 152.114 C 112.411 148.469, 108.894 147.880, 109.716 151.023 M 207.250 154.559 C 206.563 155.305, 206 156.555, 206 157.336 C 206 158.117, 205.120 159.373, 204.045 160.128 C 202.970 160.883, 201.958 162.137, 201.795 162.917 C 201.633 163.696, 200.713 165.158, 199.750 166.167 C 198.787 167.175, 198 168.752, 198 169.671 C 198 170.590, 197.213 172.270, 196.250 173.404 C 194.575 175.378, 194.577 175.406, 196.304 174.066 C 198.252 172.554, 209.532 154.187, 208.889 153.574 C 208.675 153.369, 207.938 153.812, 207.250 154.559 M 126.998 160.003 C 126.135 161.617, 126.429 162.171, 128.806 163.400 C 130.368 164.207, 132.272 165.623, 133.038 166.546 C 133.804 167.469, 135.320 168.553, 136.407 168.955 C 137.494 169.357, 140.242 172.344, 142.513 175.593 C 148.100 183.586, 158.620 188.174, 153.523 180.395 C 151.850 177.841, 151.857 177.821, 154.165 178.650 C 155.449 179.111, 158.168 179.469, 160.207 179.447 C 163.118 179.414, 163.977 179.820, 164.207 181.334 C 164.418 182.724, 165.117 181.985, 166.709 178.689 C 168.918 174.115, 168.918 174.115, 163.803 174.155 C 160.128 174.183, 158.437 173.745, 157.794 172.597 C 157.245 171.616, 155.571 171, 153.450 171 C 149.714 171, 149.119 169.673, 151.067 165.684 C 151.978 163.819, 151.836 163.865, 150.089 166 C 148.965 167.375, 148.034 168.769, 148.022 169.097 C 148.010 169.426, 146.988 170.183, 145.750 170.780 C 143.500 171.865, 143.500 171.865, 145.750 171.932 C 146.988 171.970, 148.037 172.338, 148.082 172.750 C 148.127 173.162, 148.367 174.728, 148.614 176.229 C 149.298 180.388, 145.131 178.388, 142.416 173.254 C 139.996 168.678, 137.721 166.164, 133.750 163.676 C 132.238 162.729, 131 161.337, 131 160.584 C 131 158.316, 128.125 157.898, 126.998 160.003 M 98.167 163.940 C 98.937 166.110, 127.262 190.824, 132 193.459 C 134.292 194.734, 132.480 193.122, 122.500 185.010 C 117.550 180.986, 110.350 174.386, 106.500 170.343 C 100.116 163.639, 97.289 161.467, 98.167 163.940 M 119 166.940 C 119 167.494, 121.025 169.972, 123.500 172.447 C 125.975 174.922, 128 176.749, 128 176.507 C 128 176.265, 125.975 173.787, 123.500 171 C 121.025 168.213, 119 166.386, 119 166.940" stroke="none" fill="#d8d8dc" fill-rule="evenodd"/><path d="M 157 21.774 C 157 22.265, 157.286 22.953, 157.635 23.302 C 159.191 24.858, 159.794 35.787, 158.805 44.500 C 158.138 50.371, 158.155 50.429, 159.588 47.194 C 162.204 41.285, 161.081 23.404, 157.973 21.483 C 157.438 21.153, 157 21.284, 157 21.774 M 208.450 78.908 C 206.639 80.638, 198.108 85, 196.533 85 C 195.664 85, 192.812 86.463, 190.198 88.250 C 178.654 96.141, 160.109 101.762, 152.021 99.821 C 141.001 97.175, 137.215 98.170, 141.960 102.464 C 143.038 103.440, 143.865 104.522, 143.796 104.869 C 143.143 108.183, 145.382 111.119, 146.677 108.647 C 148.153 105.830, 148.549 105.687, 154 105.996 C 158.314 106.240, 159.372 106.835, 158.170 108.339 C 155.795 111.311, 145.966 129.300, 146.452 129.785 C 146.753 130.087, 147 129.782, 147 129.108 C 147 128.434, 147.450 128.160, 148 128.500 C 150.186 129.851, 149.114 135.627, 146.453 136.839 C 142.963 138.430, 142.682 138.331, 143.343 135.750 C 143.920 133.500, 143.920 133.500, 142.210 135.661 C 140.387 137.964, 128.650 141.520, 126.748 140.344 C 126.160 139.981, 123.839 139.560, 121.589 139.409 C 117.382 139.126, 109.716 137.330, 111.500 137.045 C 112.050 136.957, 110.068 135.780, 107.095 134.431 C 101.512 131.896, 99.831 131.886, 101.918 134.402 C 102.580 135.199, 103.041 136.448, 102.942 137.176 C 102.400 141.179, 104.285 142.360, 106.463 139.382 C 108.060 137.197, 113.043 138.324, 117.179 141.804 C 121.687 145.597, 139.276 145.347, 146.876 141.382 C 150.226 139.634, 151 139.651, 151 141.476 C 151 142.288, 151.898 144.425, 152.996 146.226 C 154.094 148.027, 154.994 150.512, 154.996 151.750 C 154.999 153.468, 155.577 154, 157.443 154 C 159.950 154, 163.921 158.193, 162.016 158.828 C 161.457 159.014, 161.014 159.917, 161.032 160.833 C 161.060 162.307, 161.226 162.286, 162.463 160.653 C 163.233 159.637, 163.613 158.156, 163.309 157.362 C 163.004 156.568, 163.147 156.022, 163.627 156.150 C 166.058 156.794, 171.487 154.711, 169.500 153.897 C 168.135 153.337, 169.167 153.121, 172.750 153.217 C 177.740 153.350, 179.205 154.137, 177 155.500 C 176.450 155.840, 176 156.545, 176 157.067 C 176 157.590, 176.900 157.455, 178 156.768 C 179.100 156.081, 180 154.952, 180 154.259 C 180 153.567, 180.675 153, 181.500 153 C 182.325 153, 183 152.238, 183 151.307 C 183 142.115, 197.306 137.291, 198.496 146.082 C 199.724 155.156, 203.251 157.206, 206.361 150.652 C 208.581 145.974, 208.432 145, 205.500 145 C 202.613 145, 202.407 144.450, 204.509 142.348 C 206.208 140.649, 205.647 139, 203.370 139 C 202.045 139, 202.052 138.805, 203.429 137.429 C 204.293 136.564, 205 135.022, 205 134.002 C 205 132.982, 205.787 131.923, 206.750 131.650 C 207.713 131.376, 205.393 131.196, 201.597 131.249 C 190.304 131.406, 188.304 128.048, 192.811 116.500 C 195.785 108.882, 198.471 106.688, 206.303 105.477 C 209.131 105.040, 210.043 104.454, 209.856 103.195 C 209.718 102.263, 210.197 97.802, 210.920 93.282 C 212.647 82.484, 211.527 75.967, 208.450 78.908 M 248.673 83.759 C 248.232 84.451, 248.108 85.801, 248.398 86.759 C 248.688 87.717, 249.010 91.732, 249.112 95.683 C 249.330 104.044, 249.522 104.469, 253.500 105.376 C 255.150 105.753, 256.005 105.710, 255.400 105.280 C 253.156 103.689, 251.730 99.456, 250.617 91.091 C 249.942 86.016, 249.147 83.015, 248.673 83.759 M 65.543 89.750 C 65.213 92.912, 64.759 96.963, 64.534 98.750 C 64.239 101.098, 64.524 102, 65.563 102 C 66.706 102, 67 100.158, 67 93 C 67 82.696, 66.416 81.394, 65.543 89.750 M 167.214 105.985 C 158.113 107.384, 150.656 127.309, 158.500 129.268 C 160.009 129.645, 159.812 129.796, 157.699 129.884 C 154.294 130.025, 150.733 136.548, 153.176 138.169 C 158.846 141.932, 180.364 136.479, 183.440 130.500 C 185.977 125.569, 192.799 105.994, 192.125 105.579 C 191.110 104.956, 171.872 105.269, 167.214 105.985 M 66.281 111.250 C 65.134 112.737, 62 120.622, 62 122.020 C 62 122.559, 64.025 123, 66.500 123 C 68.975 123, 71 122.694, 71 122.321 C 71 120.751, 68.433 114.445, 67.533 113.804 C 66.973 113.404, 67.290 112.826, 68.278 112.447 C 69.225 112.083, 70 111.384, 70 110.893 C 70 109.563, 67.389 109.814, 66.281 111.250 M 168.513 116.622 C 166.363 121.769, 166.492 122, 171.525 122 C 176.265 122, 176.360 121.907, 178.434 115.250 C 179.838 110.744, 170.426 112.045, 168.513 116.622 M 75.574 137 C 76.693 141.559, 84.439 154.297, 88.451 158.178 C 94.691 164.213, 95.673 162.628, 89.809 155.988 C 86.889 152.682, 82.822 147.170, 80.772 143.738 C 75.370 134.698, 74.840 134.011, 75.574 137 M 186.049 136.441 C 185.392 137.233, 184.323 137.678, 183.675 137.429 C 183.026 137.180, 181.930 137.882, 181.239 138.988 C 179.769 141.342, 180.696 141.544, 183.441 139.468 C 184.509 138.661, 186.003 138, 186.763 138 C 187.522 138, 188.818 137.325, 189.643 136.500 C 190.976 135.167, 190.926 135, 189.194 135 C 188.122 135, 186.707 135.648, 186.049 136.441 M 103.635 144.781 C 102.800 146.133, 104.631 151, 105.975 151 C 107.360 151, 107.209 149.005, 105.607 146.115 C 104.836 144.723, 104.014 144.168, 103.635 144.781 M 98.339 169.560 C 97.595 171.498, 102.358 176.679, 106.500 178.437 C 108.150 179.137, 111.455 181.350, 113.845 183.355 C 120.344 188.808, 121.315 187.738, 115.080 181.994 C 112.100 179.247, 109.036 177, 108.271 177 C 107.507 177, 107.105 176.638, 107.378 176.197 C 107.990 175.208, 101.518 168, 100.020 168 C 99.424 168, 98.668 168.702, 98.339 169.560" stroke="none" fill="#f0f1f5" fill-rule="evenodd"/><path d="M 159.085 54.947 C 158.538 55.285, 158.164 56.529, 158.253 57.712 C 158.413 59.827, 160 59.909, 160 57.801 C 160 57.207, 160.735 56.183, 161.632 55.527 C 163.455 54.194, 161.151 53.670, 159.085 54.947 M 195.792 72.925 C 193.203 73.287, 190.841 73.826, 190.543 74.123 C 189.614 75.052, 201.447 73.824, 202.450 72.887 C 203.494 71.913, 203.020 71.915, 195.792 72.925 M 119 73.570 C 119 74.204, 122.906 78, 123.559 78 C 123.866 78, 123.840 77.550, 123.500 77 C 123.160 76.450, 123.659 76, 124.608 76 C 125.557 76, 126.094 75.761, 125.802 75.469 C 125.067 74.734, 119 73.040, 119 73.570 M 137.472 82.954 C 137.739 83.386, 139.429 84.294, 141.229 84.971 C 143.028 85.648, 145.400 86.564, 146.500 87.006 C 157.344 91.367, 173.216 89.534, 178.013 83.367 C 179.385 81.603, 179.356 81.586, 177.483 83.062 C 170.937 88.221, 153.910 89.590, 146.071 85.589 C 142.389 83.710, 136.899 82.028, 137.472 82.954 M 177.607 174.572 C 178.063 176.389, 177.637 178, 176.177 179.974 C 174.165 182.695, 174.161 182.771, 176.049 182.277 C 177.502 181.897, 178 182.276, 178 183.761 C 178 186.462, 175.724 188.324, 174.239 186.839 C 173.422 186.022, 173.149 186.546, 173.214 188.814 C 173.262 190.512, 173.871 192.120, 174.568 192.388 C 175.907 192.901, 177.456 190.369, 177.110 188.234 C 176.997 187.538, 177.413 187.088, 178.033 187.234 C 178.653 187.380, 179.912 186.394, 180.830 185.043 C 181.907 183.458, 182.026 182.876, 181.166 183.404 C 180.173 184.012, 179.917 183.618, 180.166 181.861 C 180.414 180.106, 181.046 179.575, 182.627 179.792 C 183.817 179.955, 185.009 179.419, 185.333 178.574 C 186.004 176.827, 184.447 175.468, 183.510 176.984 C 182.624 178.417, 181 178.248, 181 176.722 C 181 176.019, 180.090 174.666, 178.979 173.714 C 177.015 172.033, 176.976 172.057, 177.607 174.572 M 161.594 196.750 C 160.251 198.032, 159.636 198.166, 159.297 197.250 C 159.042 196.563, 158.366 196, 157.794 196 C 157.161 196, 157.234 196.578, 157.983 197.480 C 159.715 199.566, 163.880 199.063, 163.709 196.788 C 163.635 195.805, 163.542 195, 163.501 195 C 163.461 195, 162.603 195.787, 161.594 196.750" stroke="none" fill="#b0b0b3" fill-rule="evenodd"/><path d="M 110.490 67.016 C 110.144 67.575, 109.474 67.793, 109 67.500 C 108.526 67.207, 107.813 67.494, 107.415 68.138 C 106.963 68.869, 107.124 69.041, 107.845 68.595 C 108.480 68.203, 109 68.332, 109 68.882 C 109 69.432, 108.482 70.202, 107.849 70.594 C 107.048 71.088, 107.249 71.709, 108.506 72.628 C 110.675 74.214, 112.915 72.016, 112.968 68.250 C 113.001 65.927, 111.596 65.227, 110.490 67.016" stroke="none" fill="#a4a5a7" fill-rule="evenodd"/><path d="M 114.944 56.947 C 116.679 58.568, 118.321 59.893, 118.594 59.891 C 118.866 59.889, 121.984 62.163, 125.523 64.944 C 129.062 67.725, 132.276 70, 132.666 70 C 133.850 70, 123.631 61.101, 121.690 60.442 C 120.276 59.962, 120.019 59.188, 120.519 56.913 C 121.155 54.019, 121.128 54, 116.474 54 C 111.788 54, 111.788 54, 114.944 56.947 M 197.149 55.604 C 196.406 56.444, 195.956 57.214, 196.149 57.316 C 196.342 57.417, 197.594 58.117, 198.932 58.872 C 202.855 61.086, 207.201 62.103, 206.733 60.699 C 206.513 60.040, 205.921 59.493, 205.417 59.485 C 203.389 59.451, 201.854 57.668, 202.319 55.887 C 202.940 53.515, 199.179 53.309, 197.149 55.604 M 90.664 91.832 C 90.849 92.564, 91 94.477, 91 96.082 C 91 98.828, 91.240 99, 95.066 99 C 97.302 99, 100.002 99.466, 101.066 100.035 C 102.130 100.605, 103 100.841, 103 100.561 C 103 100.281, 101.703 99.381, 100.117 98.561 C 98.532 97.741, 96.948 95.929, 96.598 94.535 C 96.138 92.703, 95.297 92, 93.564 92 C 92.246 92, 90.978 91.662, 90.747 91.250 C 90.517 90.838, 90.479 91.099, 90.664 91.832" stroke="none" fill="#929295" fill-rule="evenodd"/><path d="" stroke="none" fill="#aeacb3" fill-rule="evenodd"/><path d="M 66.124 103.457 C 66.376 103.709, 70.163 103.993, 74.541 104.090 C 84.408 104.307, 85.514 105.051, 85.453 111.433 C 85.408 116.265, 85.432 116.306, 86.658 113.433 C 89.914 105.804, 86.651 103, 74.519 103 C 69.650 103, 65.872 103.206, 66.124 103.457 M 62.368 104.787 C 62.704 105.329, 62.308 106.329, 61.489 107.009 C 59.595 108.581, 59.567 112.710, 61.439 114.582 C 62.691 115.833, 62.805 115.571, 62.316 112.561 C 61.692 108.715, 64.225 104.539, 65.371 107.526 C 65.683 108.337, 65.501 109, 64.969 109 C 64.436 109, 64 109.540, 64 110.200 C 64 111.133, 64.267 111.133, 65.200 110.200 C 65.863 109.537, 69.046 109, 72.308 109 C 78.773 109, 78.372 108.434, 76.668 115.157 C 76.481 115.896, 76.517 116.160, 76.749 115.744 C 76.981 115.328, 77.537 115.214, 77.985 115.491 C 78.434 115.768, 78.733 114.308, 78.650 112.247 C 78.500 108.500, 78.500 108.500, 72.250 108.202 C 68.813 108.039, 66 107.492, 66 106.987 C 66 106.483, 65.046 105.560, 63.879 104.935 C 62.713 104.311, 62.033 104.244, 62.368 104.787 M 231.414 106.765 C 230.817 107.169, 229.066 111.100, 227.524 115.500 C 225.981 119.900, 224.473 124.175, 224.172 125 C 223.718 126.246, 223.891 126.284, 225.192 125.228 C 226.054 124.528, 227.101 122.503, 227.519 120.728 C 227.937 118.952, 228.354 117.275, 228.446 117 C 228.538 116.725, 228.947 115.098, 229.356 113.385 C 229.765 111.672, 230.995 109.309, 232.089 108.135 C 234.016 106.066, 233.624 105.270, 231.414 106.765 M 110.554 111.500 C 106.397 116.573, 105.329 116.984, 104.706 113.750 C 104.334 111.821, 104.253 111.892, 104.136 114.250 C 103.961 117.779, 106.482 117.928, 109.143 114.546 C 110.390 112.960, 111.653 112.313, 112.710 112.719 C 113.932 113.188, 114.187 112.930, 113.716 111.703 C 113.367 110.793, 113.768 109.375, 114.614 108.529 C 115.455 107.688, 115.715 107, 115.192 107 C 114.669 107, 112.582 109.025, 110.554 111.500 M 119.323 108.400 C 119.668 109.298, 119.089 109.548, 117.409 109.227 C 115.683 108.897, 115 109.216, 115 110.352 C 115 111.405, 115.588 111.752, 116.750 111.387 C 118.244 110.917, 118.216 111.068, 116.559 112.418 C 115.491 113.288, 115.065 114, 115.613 114 C 117.959 114, 123.120 107.435, 120.905 107.268 C 119.583 107.168, 119.008 107.579, 119.323 108.400 M 127.680 109.250 C 126.586 113.836, 126.009 121.757, 127.006 118.500 C 127.746 116.084, 127.830 116.507, 127.438 120.676 C 127.170 123.522, 127.299 126.067, 127.725 126.330 C 128.151 126.593, 128.541 122.351, 128.592 116.904 C 128.688 106.554, 128.567 105.533, 127.680 109.250 M 179.776 109.250 C 180.174 110.773, 179.455 111, 174.224 111 C 169.666 111, 168.067 111.382, 167.607 112.582 C 166.671 115.022, 166.945 115.699, 168.080 113.750 C 168.860 112.411, 170.437 111.996, 174.800 111.985 C 180.814 111.969, 182.302 111.440, 183.196 109 C 183.579 107.953, 183.077 107.500, 181.532 107.500 C 179.916 107.500, 179.442 107.973, 179.776 109.250 M 218.678 107.656 C 218.317 108.016, 216.330 108.677, 214.261 109.125 C 210.808 109.872, 210.889 109.902, 215.250 109.488 C 217.994 109.228, 220 109.452, 220 110.019 C 220 111.127, 217.975 111.329, 209.830 111.032 C 204.050 110.821, 199.618 113.954, 201.466 116.945 C 201.846 117.561, 201.478 117.737, 200.552 117.382 C 198.858 116.732, 198.561 117.760, 199.854 119.797 C 200.511 120.834, 200.935 120.783, 201.961 119.547 C 202.755 118.590, 204.884 118, 207.541 118 C 212.529 118, 215 117.236, 215 115.693 C 215 114.962, 214.603 114.997, 213.800 115.800 C 210.858 118.742, 201.376 117.035, 203.070 113.869 C 204.177 111.801, 213.329 111.106, 214.500 113 C 214.840 113.550, 216.104 113.968, 217.309 113.930 C 219.421 113.862, 219.428 113.829, 217.500 113 C 215.728 112.238, 215.813 112.133, 218.250 112.070 C 220.498 112.013, 221 111.544, 221 109.500 C 221 107.080, 220.027 106.307, 218.678 107.656 M 255 108.226 C 255 109.110, 255.563 110.060, 256.250 110.338 C 257.065 110.667, 256.949 110.870, 255.917 110.921 C 255.046 110.964, 254.329 111.563, 254.324 112.250 C 254.319 112.938, 254.023 114.625, 253.667 116 C 253.020 118.500, 253.020 118.500, 254.260 115.896 C 254.942 114.463, 256.025 112.662, 256.667 111.893 C 257.566 110.816, 257.509 110.049, 256.417 108.556 C 255.252 106.963, 255 106.904, 255 108.226 M 236.719 109.463 C 234.290 111.239, 236.349 112, 243.582 112 C 248.081 112, 248.997 112.297, 248.985 113.750 C 248.971 115.263, 248.823 115.297, 247.890 114 C 246.993 112.752, 246.911 112.808, 247.406 114.332 C 247.733 115.339, 248.007 116.464, 248.015 116.832 C 248.050 118.342, 249.971 114.361, 249.985 112.750 C 249.998 111.256, 249.012 110.998, 243.250 110.985 C 238.695 110.974, 236.978 110.667, 237.971 110.039 C 238.780 109.527, 239.229 108.896, 238.969 108.636 C 238.710 108.376, 237.697 108.749, 236.719 109.463 M 183.514 111.250 C 182.051 115.826, 182.170 116.453, 184.066 114.139 C 186.086 111.674, 186.633 109, 185.117 109 C 184.631 109, 183.910 110.013, 183.514 111.250 M 145.787 112.613 C 145.511 113.101, 144.109 115.543, 142.671 118.039 C 140.195 122.339, 140.160 122.586, 142.007 122.726 C 143.080 122.806, 143.855 122.496, 143.729 122.036 C 143.603 121.576, 143.768 121.267, 144.096 121.350 C 144.424 121.433, 145.417 120.899, 146.303 120.164 C 147.188 119.429, 148.360 119.104, 148.906 119.442 C 151.238 120.883, 152.280 115.836, 150.100 113.656 C 148.205 111.761, 148 111.730, 148 113.337 C 148 114.316, 148.445 114.843, 148.989 114.507 C 149.581 114.141, 149.706 114.604, 149.299 115.664 C 148.726 117.158, 148.439 116.989, 147.454 114.579 C 146.812 113.009, 146.062 112.125, 145.787 112.613 M 81 116.571 C 81 117.986, 81.762 119.898, 82.694 120.821 C 84.281 122.394, 84.344 122.384, 83.694 120.668 C 83.312 119.661, 83 117.748, 83 116.418 C 83 115.088, 82.550 114, 82 114 C 81.450 114, 81 115.157, 81 116.571 M 97.100 117.469 C 97.045 118.551, 94.638 121.917, 91.750 124.947 C 88.862 127.978, 87.768 129.348, 89.317 127.992 C 92.134 125.526, 92.134 125.526, 93.862 127.818 C 95.591 130.109, 95.591 130.109, 97.546 127.822 C 98.620 126.564, 98.825 126.032, 98 126.641 C 96.853 127.487, 96.072 127.331, 94.682 125.975 C 93.504 124.827, 93.240 123.970, 93.932 123.542 C 94.519 123.179, 95 123.359, 95 123.941 C 95 124.523, 95.505 125, 96.122 125 C 96.854 125, 96.770 124.428, 95.880 123.356 C 94.667 121.894, 94.765 121.791, 96.758 122.423 C 99.191 123.195, 99.412 122.409, 98 118 C 97.351 115.974, 97.180 115.873, 97.100 117.469 M 180.015 120.250 C 180.027 122.716, 180.264 123.138, 181 122 C 181.736 120.862, 181.973 121.284, 181.985 123.750 C 182.005 128.143, 183.480 127.908, 183.575 123.497 C 183.616 121.574, 183.279 120, 182.825 120 C 182.371 120, 182 119.325, 182 118.500 C 182 117.675, 181.550 117, 181 117 C 180.450 117, 180.007 118.463, 180.015 120.250 M 195.355 122.222 C 195.269 125.524, 195.540 126.012, 197.378 125.862 C 205.739 125.179, 213.876 126.086, 214.311 127.750 C 214.697 129.228, 214.788 129.190, 214.899 127.500 C 215.009 125.833, 215.192 125.749, 216 127 C 216.828 128.282, 216.972 128.246, 216.985 126.750 C 216.998 125.219, 215.934 125, 208.500 125 C 202.127 125, 200 124.670, 200 123.680 C 200 119.770, 195.457 118.344, 195.355 122.222 M 52.490 120.712 C 52.831 121.929, 52.635 123.814, 52.053 124.902 C 50.825 127.195, 51.936 128.246, 55.958 128.597 C 58.475 128.817, 58.478 128.808, 56.250 127.757 C 54.775 127.060, 53.995 125.800, 53.985 124.097 C 53.976 122.669, 53.497 120.825, 52.919 120 C 52.093 118.820, 52.001 118.972, 52.490 120.712 M 203.496 120.007 C 202.576 121.494, 205.196 122.177, 210.136 121.738 C 214.402 121.358, 214.380 121.345, 209.191 121.175 C 205.945 121.068, 204.122 120.611, 204.500 120 C 204.840 119.450, 204.893 119, 204.618 119 C 204.343 119, 203.838 119.453, 203.496 120.007 M 101.948 121.717 C 100.795 123.238, 100.802 123.317, 101.998 122.250 C 104.314 120.185, 104.871 120.775, 105.297 125.750 C 105.704 130.500, 105.704 130.500, 105.602 125.578 C 105.492 120.294, 104.124 118.847, 101.948 121.717 M 137.250 128.031 C 135.080 128.903, 134.041 132, 135.918 132 C 136.423 132, 137.436 132.230, 138.168 132.511 C 139.096 132.867, 139.500 132.108, 139.500 130.011 C 139.500 128.355, 139.500 127.029, 139.500 127.063 C 139.500 127.098, 138.488 127.534, 137.250 128.031 M 173.442 130.958 C 172.916 131.484, 168.663 132.078, 163.992 132.277 C 157.045 132.573, 157.456 132.627, 166.252 132.570 C 177.746 132.495, 177.923 132.537, 175.250 134.688 C 173.211 136.329, 178.416 133.870, 181 131.971 C 182.203 131.087, 182.055 130.994, 180.250 131.502 C 178.767 131.919, 178 131.703, 178 130.867 C 178 129.882, 177.733 129.867, 176.800 130.800 C 175.349 132.251, 173.635 132.400, 174.500 131 C 175.284 129.731, 174.693 129.707, 173.442 130.958 M 141 133 C 141 133.550, 140.213 134.007, 139.250 134.015 C 137.754 134.028, 137.718 134.172, 139 135 C 140.133 135.732, 139.678 135.973, 137.143 135.985 C 134.566 135.996, 133.920 135.651, 134.362 134.500 C 135.200 132.315, 134.250 132.664, 133 135 C 131.206 138.352, 139.196 137.876, 141.408 134.500 C 142.309 133.125, 142.586 132, 142.023 132 C 141.460 132, 141 132.450, 141 133 M 159.776 134.733 C 162.128 134.945, 165.728 134.942, 167.776 134.727 C 169.824 134.512, 167.900 134.339, 163.500 134.343 C 159.100 134.346, 157.424 134.522, 159.776 134.733 M 153.998 136.250 C 153.999 136.662, 158.387 136.928, 163.750 136.840 C 173.782 136.675, 172.613 136.261, 160.748 135.776 C 157.034 135.624, 153.997 135.838, 153.998 136.250 M 119.223 156.557 C 118 157.413, 117.036 158.650, 117.079 159.307 C 117.140 160.231, 117.268 160.230, 117.644 159.306 C 117.911 158.650, 118.849 158.389, 119.729 158.726 C 120.791 159.134, 121.085 158.947, 120.605 158.170 C 120.113 157.374, 120.860 157, 122.941 157 C 124.623 157, 126 156.550, 126 156 C 126 154.462, 121.710 154.815, 119.223 156.557 M 172.131 156.342 C 171.519 157.080, 171.275 157.942, 171.590 158.256 C 171.904 158.571, 171.700 159.692, 171.135 160.748 C 170.343 162.228, 170.438 162.667, 171.554 162.667 C 172.914 162.667, 173.447 161.117, 173.075 158.250 C 172.985 157.563, 173.382 157, 173.956 157 C 174.530 157, 175 156.550, 175 156 C 175 154.577, 173.442 154.763, 172.131 156.342 M 149.035 157.934 C 147.411 160.969, 147.809 162.560, 150.237 162.743 C 151.728 162.855, 152.042 162.644, 151.179 162.111 C 150.340 161.592, 150.119 160.375, 150.550 158.655 C 151.330 155.549, 150.518 155.163, 149.035 157.934" stroke="none" fill="#1e1d22" fill-rule="evenodd"/><path d="M 61.430 104.950 C 58.650 106.095, 56.304 109.867, 53.409 117.849 C 50.781 125.096, 50.319 128.274, 52.589 123.500 C 54.015 120.500, 54.015 120.500, 53.803 124.014 C 53.686 125.947, 53.934 128.085, 54.354 128.764 C 55.518 130.648, 70.429 130.429, 72.357 128.500 C 74.052 126.805, 75.438 126.482, 74.500 128 C 74.160 128.550, 74.523 129, 75.306 129 C 81.334 129, 89.613 109.479, 85.046 106.035 C 82.400 104.039, 65.526 103.264, 61.430 104.950 M 61.677 106.804 C 59.860 108.812, 59.372 114, 61 114 C 61.550 114, 62 112.843, 62 111.429 C 62 108.627, 64.502 105.340, 65.345 107.034 C 65.623 107.593, 65.743 107.504, 65.612 106.838 C 65.222 104.845, 63.464 104.830, 61.677 106.804 M 96.546 110.750 C 96.896 112.813, 97.589 116.075, 98.086 118 C 99.335 122.842, 99.257 123.216, 97.141 122.545 C 94.494 121.705, 92.288 124.502, 94.585 125.788 C 95.557 126.332, 95.967 127.245, 95.544 127.928 C 95.014 128.786, 94.431 128.613, 93.462 127.310 C 92.177 125.582, 92.012 125.602, 89.835 127.750 C 87.556 130, 87.556 130, 91.161 130 C 94.252 130, 95.404 129.267, 99.249 124.858 C 104.390 118.963, 106 119.130, 106 125.559 C 106 130, 106 130, 110.132 130 C 114.263 130, 114.263 130, 113.559 125.750 C 112.470 119.178, 112.119 113.575, 112.873 114.794 C 113.313 115.506, 114.073 115.565, 115.026 114.963 C 115.837 114.450, 116.137 114.024, 115.694 114.015 C 115.251 114.007, 116.038 112.987, 117.443 111.750 C 119.193 110.209, 119.723 109.072, 119.124 108.143 C 117.785 106.064, 114.904 107.608, 111 112.496 C 106.411 118.242, 104 118.415, 104 113 C 104 110.800, 103.523 109, 102.941 109 C 102.359 109, 102.160 108.550, 102.500 108 C 102.868 107.404, 101.662 107, 99.514 107 C 95.909 107, 95.909 107, 96.546 110.750 M 127.399 116.623 C 125.587 126.247, 125.587 126.247, 127.904 128.123 C 130.323 130.082, 134.490 130.635, 135.425 129.121 C 136.911 126.717, 139.500 127.369, 139.500 130.147 C 139.500 132.458, 139.157 132.867, 137.625 132.381 C 136.556 132.042, 135.381 132.369, 134.890 133.143 C 133.427 135.452, 133.883 136.001, 137.250 135.985 C 139.716 135.973, 140.138 135.736, 139 135 C 137.892 134.284, 137.845 134.027, 138.821 134.015 C 141.501 133.984, 147.057 125.519, 144.875 124.792 C 144.235 124.578, 144.528 123.820, 145.582 122.963 C 146.668 122.082, 147.085 121.997, 146.633 122.750 C 146.220 123.438, 146.122 124, 146.415 124 C 146.709 124, 147.662 122.620, 148.535 120.932 C 150.121 117.865, 150.121 117.865, 147.811 119.134 C 144.898 120.735, 142.815 121.108, 143.564 119.896 C 143.880 119.385, 144.557 119.226, 145.069 119.543 C 145.581 119.859, 145.985 119.079, 145.967 117.809 C 145.933 115.500, 145.933 115.500, 143.952 117.879 C 142.364 119.786, 142.211 120.549, 143.181 121.718 C 144.180 122.921, 144.050 123.118, 142.446 122.839 C 141.155 122.614, 140.539 123.039, 140.615 124.104 C 140.701 125.319, 139.852 125.683, 137.115 125.604 C 133.563 125.502, 133.499 125.426, 133.438 121.307 C 133.403 118.879, 133.779 117.364, 134.333 117.706 C 134.894 118.053, 135.079 117.191, 134.779 115.625 C 134.498 114.155, 134.659 112.711, 135.137 112.415 C 135.615 112.120, 135.502 110.938, 134.886 109.788 C 133.941 108.021, 134.018 107.793, 135.384 108.317 C 136.273 108.658, 137 108.501, 137 107.969 C 137 100.820, 129.021 108.013, 127.399 116.623 M 149.500 108 C 149.160 108.550, 149.471 109.029, 150.191 109.063 C 150.911 109.098, 150.488 109.534, 149.250 110.031 C 146.952 110.955, 146.362 113.446, 147.876 115.834 C 148.558 116.910, 148.838 116.865, 149.323 115.601 C 149.714 114.582, 150.550 114.268, 151.712 114.704 C 153.291 115.296, 153.337 115.174, 152.107 113.663 C 151.342 112.722, 151.004 111.663, 151.357 111.309 C 151.711 110.956, 152 111.218, 152 111.892 C 152 112.566, 152.481 112.821, 153.068 112.458 C 153.656 112.095, 153.900 111.183, 153.612 110.431 C 153.323 109.679, 153.587 108.755, 154.198 108.378 C 154.918 107.933, 155.024 108.152, 154.500 109 C 153.965 109.866, 154.082 110.068, 154.845 109.595 C 155.480 109.203, 156 108.459, 156 107.941 C 156 106.680, 150.284 106.732, 149.500 108 M 166.046 107.709 C 163.457 108.766, 160.769 111.818, 161.453 112.923 C 161.819 113.516, 161.694 114, 161.176 114 C 159.814 114, 159.010 117.837, 160.283 118.261 C 160.892 118.464, 161.008 119.178, 160.552 119.916 C 159.899 120.973, 159.602 120.974, 158.954 119.926 C 158.434 119.085, 157.912 119.952, 157.447 122.429 C 156.430 127.852, 163.998 130.236, 171.453 126.839 C 175.170 125.146, 174.571 124, 169.969 124 C 164.915 124, 164.306 122.606, 166.488 116.037 C 168.161 111, 168.161 111, 174.154 111 C 179.322 111, 180.101 110.759, 179.813 109.250 C 179.469 107.444, 169.442 106.321, 166.046 107.709 M 183.292 108.750 C 182.936 109.713, 182.360 110.725, 182.011 111 C 180.708 112.025, 177.950 122.706, 178.570 124.322 C 178.924 125.245, 178.753 126, 178.190 126 C 177.627 126, 176.940 125.438, 176.662 124.750 C 176.385 124.063, 176.115 124.625, 176.064 126 C 176.012 127.375, 175.550 129.163, 175.037 129.974 C 174.423 130.945, 174.513 131.706, 175.303 132.208 C 175.961 132.627, 171.662 132.976, 165.750 132.985 C 156.868 132.997, 155 133.261, 155 134.500 C 155 135.728, 156.680 135.994, 164.250 135.968 C 173.110 135.938, 177.347 134.732, 176.919 132.362 C 176.572 130.443, 177.080 129.577, 177.845 130.784 C 178.751 132.212, 181.609 131.495, 182.272 129.673 C 183.069 127.481, 181.823 120.671, 180.893 122.139 C 180.307 123.065, 180.026 122.460, 180.015 120.250 C 180.007 118.463, 180.450 117, 181 117 C 181.550 117, 182 117.675, 182 118.500 C 182 119.325, 182.439 120, 182.975 120 C 183.511 120, 183.728 121.463, 183.456 123.250 C 182.977 126.402, 183.008 126.384, 184.469 122.635 C 185.297 120.508, 185.729 118.371, 185.429 117.885 C 185.128 117.398, 185.316 117, 185.847 117 C 186.586 117, 190 109.044, 190 107.322 C 190 105.989, 183.825 107.304, 183.292 108.750 M 201 108.730 C 196.682 110.809, 196.521 111.038, 193.919 118.796 C 191.807 125.091, 191.807 125.091, 194.455 127.546 C 198.377 131.181, 216.042 131.349, 215.930 127.750 C 215.863 125.603, 215.820 125.592, 215 127.500 C 214.265 129.210, 214.130 129.246, 214.070 127.750 C 214.003 126.077, 205.930 125.164, 197.378 125.862 C 195.528 126.013, 195.269 125.528, 195.359 122.083 C 195.416 119.909, 195.696 118.439, 195.981 118.815 C 198.376 121.976, 200.308 122.406, 199.615 119.624 C 199.020 117.236, 199.171 116.852, 200.501 117.362 C 201.468 117.733, 201.851 117.568, 201.466 116.945 C 198.641 112.374, 208.790 109.272, 216.135 112.461 C 218.906 113.664, 219.103 113.929, 217.250 113.961 C 216.012 113.982, 215 114.627, 215 115.393 C 215 117.246, 212.783 118, 207.335 118 C 200.626 118, 202.216 120.423, 209.169 120.795 C 213.194 121.011, 215.026 120.674, 215.963 119.545 C 216.668 118.695, 217.888 118, 218.673 118 C 220.761 118, 223.316 111.368, 222.059 109.213 C 221.181 107.707, 221.057 107.772, 221.030 109.750 C 221.006 111.564, 220.467 111.974, 218.250 111.864 C 215.892 111.747, 215.821 111.666, 217.750 111.294 C 221.994 110.477, 220.002 109.038, 215.250 109.488 C 210.889 109.902, 210.808 109.872, 214.261 109.125 C 220.563 107.762, 219.712 106.999, 211.917 107.023 C 207.055 107.038, 203.294 107.626, 201 108.730 M 230.627 110.374 C 229.746 112.229, 228.865 114.592, 228.669 115.624 C 227.807 120.146, 226.644 123.609, 225.518 125 C 222.625 128.575, 222.890 130, 226.449 130 C 229.727 130, 234.280 122.969, 233.188 119.592 C 233.027 119.092, 233.265 118.417, 233.718 118.092 C 235.383 116.895, 237.203 111.568, 236.075 111.192 C 235.477 110.992, 236.004 109.983, 237.244 108.948 C 239.500 107.067, 239.500 107.067, 235.864 107.033 C 232.703 107.004, 232.018 107.441, 230.627 110.374 M 243.444 108.401 C 242.344 109.172, 240.331 110.011, 238.972 110.265 C 237.612 110.520, 239.537 110.789, 243.250 110.864 C 250.322 111.007, 251.572 112.132, 248.954 116 C 248.201 117.113, 248.104 116.790, 248.578 114.750 C 248.929 113.237, 248.831 112.001, 248.358 112.002 C 247.886 112.003, 247.399 113.432, 247.277 115.177 C 247.154 116.921, 246.565 118.651, 245.969 119.019 C 245.353 119.400, 245.160 120.790, 245.523 122.236 C 245.882 123.668, 245.694 125.071, 245.092 125.443 C 244.423 125.857, 244.231 125.431, 244.581 124.302 C 244.887 123.311, 244.448 123.625, 243.605 125 C 241.233 128.865, 241.627 130, 245.342 130 C 248.415 130, 248.782 129.658, 249.905 125.750 C 250.577 123.412, 251.802 120.020, 252.628 118.212 C 253.454 116.403, 254.197 114.041, 254.278 112.962 C 254.359 111.883, 255.117 110.964, 255.963 110.921 C 256.992 110.868, 257.087 110.675, 256.250 110.338 C 255.563 110.060, 255 109.196, 255 108.417 C 255 106.507, 246.165 106.495, 243.444 108.401 M 262 108.081 C 260.853 108.884, 261.088 108.971, 263 108.453 C 264.713 107.989, 265.185 108.101, 264.500 108.811 C 263.950 109.380, 262.150 110.038, 260.500 110.273 C 257.647 110.679, 257.673 110.708, 261.050 110.850 C 265.502 111.038, 267.276 112.617, 265.907 115.174 C 265.357 116.201, 265.180 117.482, 265.513 118.021 C 265.846 118.559, 265.593 119, 264.952 119 C 264.309 119, 264.053 119.696, 264.382 120.552 C 264.723 121.442, 264.555 121.843, 263.989 121.493 C 262.558 120.609, 262.772 123.371, 264.250 124.859 C 265.252 125.868, 265.188 126, 263.928 125.521 C 262.872 125.119, 261.967 125.776, 261.172 127.522 C 260.004 130.085, 260.039 130.117, 263.648 129.811 C 267.257 129.504, 269.911 125.127, 271.416 117 C 271.568 116.175, 272.272 114.291, 272.978 112.814 C 275.419 107.711, 267.441 104.271, 262 108.081 M 65.399 108.741 C 64.057 109.665, 60 120.345, 60 122.952 C 60 124.565, 60.929 124.877, 66.588 125.165 C 73.928 125.538, 74.327 125.285, 75.949 119.220 C 76.578 116.866, 77.477 115.177, 77.947 115.467 C 78.416 115.757, 78.733 114.308, 78.650 112.247 C 78.500 108.499, 69.289 106.062, 65.399 108.741 M 183.514 111.250 C 182.051 115.826, 182.170 116.453, 184.066 114.139 C 186.086 111.674, 186.633 109, 185.117 109 C 184.631 109, 183.910 110.013, 183.514 111.250 M 81 117 C 81 118.650, 81.450 120, 82 120 C 82.550 120, 83 118.650, 83 117 C 83 115.350, 82.550 114, 82 114 C 81.450 114, 81 115.350, 81 117 M 159.776 134.733 C 162.128 134.945, 165.728 134.942, 167.776 134.727 C 169.824 134.512, 167.900 134.339, 163.500 134.343 C 159.100 134.346, 157.424 134.522, 159.776 134.733" stroke="none" fill="#16161a" fill-rule="evenodd"/><path d="M 129.087 79.282 C 132.447 81.860, 131.048 84.183, 126.583 83.442 C 122.500 82.764, 122.500 82.764, 125.302 85.382 C 128.374 88.253, 130.532 88.829, 129.655 86.543 C 129.205 85.370, 129.574 85.268, 131.548 86.018 C 134.302 87.065, 134.481 86.767, 132.885 83.784 C 131.871 81.891, 132.214 81.957, 136.635 84.504 C 145.795 89.783, 148.425 91, 150.461 90.901 C 151.664 90.843, 150.860 90.281, 148.500 89.530 C 143.914 88.072, 131 80.219, 131 78.888 C 131 78.400, 130.213 78.014, 129.250 78.032 C 127.672 78.060, 127.656 78.183, 129.087 79.282 M 173.541 87.934 C 172.426 89.738, 162.257 91.995, 157.360 91.527 C 152.527 91.064, 152.522 91.066, 156.500 91.973 C 162.268 93.288, 169.249 92.184, 172.624 89.424 C 174.206 88.130, 175.189 87.056, 174.809 87.036 C 174.429 87.016, 173.858 87.420, 173.541 87.934 M 189.500 168 C 189.160 168.550, 189.113 169.374, 189.395 169.831 C 189.678 170.288, 187.454 170.761, 184.454 170.882 C 179.810 171.070, 178.988 170.835, 178.921 169.301 C 178.867 168.072, 178.670 167.933, 178.300 168.864 C 177.776 170.180, 182.401 175, 184.187 175 C 184.669 175, 185.322 174.325, 185.638 173.500 C 186.333 171.689, 188.997 171.491, 189.006 173.250 C 189.010 173.938, 189.685 173.211, 190.506 171.636 C 192.556 167.705, 191.667 164.494, 189.500 168 M 145 190.500 C 145 191.325, 145.810 192, 146.800 192 C 147.790 192, 149.028 192.365, 149.550 192.810 C 152.066 194.955, 156 195.973, 156 194.479 C 156 193.665, 155.395 193, 154.655 193 C 153.915 193, 152.495 192.100, 151.500 191 C 149.358 188.634, 145 188.298, 145 190.500" stroke="none" fill="#bbbabe" fill-rule="evenodd"/></svg>